<?xml version="1.0" encoding="UTF-8" standalone="no"?>
<!-- Created with Inkscape (http://www.inkscape.org/) -->

<svg
   version="1.1"
   id="svg1"
   width="447.21207"
   height="264.22299"
   viewBox="0 0 447.21207 264.22299"
   sodipodi:docname="breakbeat-main-menu-chart-selection-user-interface.svg"
   inkscape:version="1.3.2 (091e20e, 2023-11-25, custom)"
   xml:space="preserve"
   inkscape:export-filename="breakbeat-main-menu-design-indication-2x.png"
   inkscape:export-xdpi="96"
   inkscape:export-ydpi="96"
   xmlns:inkscape="http://www.inkscape.org/namespaces/inkscape"
   xmlns:sodipodi="http://sodipodi.sourceforge.net/DTD/sodipodi-0.dtd"
   xmlns:xlink="http://www.w3.org/1999/xlink"
   xmlns="http://www.w3.org/2000/svg"
   xmlns:svg="http://www.w3.org/2000/svg"><sodipodi:namedview
     id="namedview1"
     pagecolor="#ffffff"
     bordercolor="#000000"
     borderopacity="0"
     inkscape:showpageshadow="2"
     inkscape:pageopacity="0.0"
     inkscape:pagecheckerboard="false"
     inkscape:deskcolor="#d1d1d1"
     showgrid="false"
     inkscape:zoom="1.28"
     inkscape:cx="169.53125"
     inkscape:cy="130.07813"
     inkscape:window-width="1920"
     inkscape:window-height="1009"
     inkscape:window-x="-8"
     inkscape:window-y="-8"
     inkscape:window-maximized="1"
     inkscape:current-layer="g1064"
     borderlayer="false"
     showborder="false"
     inkscape:clip-to-page="true" /><defs
     id="defs1"><linearGradient
       id="linearGradient1009"
       inkscape:collect="always"><stop
         style="stop-color:#404040;stop-opacity:1;"
         offset="0"
         id="stop1009" /><stop
         style="stop-color:#404040;stop-opacity:0;"
         offset="1"
         id="stop1010" /></linearGradient><linearGradient
       id="linearGradient918"
       inkscape:swatch="gradient"><stop
         style="stop-color:#000000;stop-opacity:1;"
         offset="0"
         id="stop922" /><stop
         style="stop-color:#000000;stop-opacity:0;"
         offset="1"
         id="stop923" /></linearGradient><linearGradient
       id="swatch921"
       inkscape:swatch="solid"><stop
         style="stop-color:#000000;stop-opacity:1;"
         offset="0"
         id="stop921" /></linearGradient><linearGradient
       id="linearGradient918-1"
       inkscape:swatch="gradient"><stop
         style="stop-color:#000000;stop-opacity:1;"
         offset="0"
         id="stop919" /><stop
         style="stop-color:#000000;stop-opacity:0;"
         offset="1"
         id="stop920" /></linearGradient><linearGradient
       id="linearGradient912"
       inkscape:collect="always"><stop
         style="stop-color:#ffffff;stop-opacity:1;"
         offset="0"
         id="stop913" /><stop
         style="stop-color:#e7e7e7;stop-opacity:1;"
         offset="1"
         id="stop914" /></linearGradient><linearGradient
       id="linearGradient903"
       inkscape:swatch="gradient"><stop
         style="stop-color:#ffffff;stop-opacity:1;"
         offset="0"
         id="stop904" /><stop
         style="stop-color:#000000;stop-opacity:0.81793481;"
         offset="1"
         id="stop905" /></linearGradient><linearGradient
       id="swatch910"
       inkscape:swatch="solid"><stop
         style="stop-color:#000000;stop-opacity:1;"
         offset="0"
         id="stop910" /></linearGradient><linearGradient
       id="swatch880"
       inkscape:swatch="solid"><stop
         style="stop-color:#e5e5e5;stop-opacity:1;"
         offset="0"
         id="stop880" /></linearGradient><linearGradient
       id="swatch13"
       inkscape:swatch="solid"><stop
         style="stop-color:#ffffff;stop-opacity:1;"
         offset="0"
         id="stop13" /></linearGradient><linearGradient
       id="swatch9"
       inkscape:swatch="solid"><stop
         style="stop-color:#000000;stop-opacity:1;"
         offset="0"
         id="stop9" /></linearGradient><linearGradient
       id="swatch2"
       inkscape:swatch="solid"><stop
         style="stop-color:#ffffff;stop-opacity:1;"
         offset="0"
         id="stop2" /></linearGradient><linearGradient
       id="swatch1"
       inkscape:swatch="solid"><stop
         style="stop-color:#000000;stop-opacity:1;"
         offset="0"
         id="stop1" /></linearGradient><linearGradient
       id="linearGradient14-4"
       inkscape:swatch="gradient"><stop
         style="stop-color:#1b1b1b;stop-opacity:1;"
         offset="0"
         id="stop17-9" /><stop
         style="stop-color:#000000;stop-opacity:0;"
         offset="1"
         id="stop18-4" /></linearGradient><linearGradient
       id="linearGradient14-1-5"
       inkscape:swatch="gradient"><stop
         style="stop-color:#000000;stop-opacity:1;"
         offset="0"
         id="stop14-1" /><stop
         style="stop-color:#000000;stop-opacity:0;"
         offset="1"
         id="stop15-3" /></linearGradient><linearGradient
       inkscape:collect="always"
       xlink:href="#linearGradient912"
       id="linearGradient914"
       x1="651.58783"
       y1="378.06564"
       x2="1071.2859"
       y2="378.06564"
       gradientUnits="userSpaceOnUse"
       gradientTransform="translate(258.95704,170.89626)" /><linearGradient
       inkscape:collect="always"
       xlink:href="#linearGradient1009"
       id="linearGradient1063"
       gradientUnits="userSpaceOnUse"
       x1="472.37708"
       y1="222.5766"
       x2="774.30365"
       y2="222.5766"
       gradientTransform="translate(448.39395,208.4252)" /><filter
       style="color-interpolation-filters:sRGB"
       inkscape:label="Drop Shadow"
       id="filter23"
       x="-0.044302498"
       y="-0.079886575"
       width="1.088605"
       height="1.1597731"><feFlood
         result="flood"
         in="SourceGraphic"
         flood-opacity="0.498039"
         flood-color="rgb(0,0,0)"
         id="feFlood22" /><feGaussianBlur
         result="blur"
         in="SourceGraphic"
         stdDeviation="1.000000"
         id="feGaussianBlur22" /><feOffset
         result="offset"
         in="blur"
         dx="0.000000"
         dy="0.000000"
         id="feOffset22" /><feComposite
         result="comp1"
         operator="in"
         in="flood"
         in2="offset"
         id="feComposite22" /><feComposite
         result="fbSourceGraphic"
         operator="over"
         in="SourceGraphic"
         in2="comp1"
         id="feComposite23" /><feColorMatrix
         result="fbSourceGraphicAlpha"
         in="fbSourceGraphic"
         values="0 0 0 -1 0 0 0 0 -1 0 0 0 0 -1 0 0 0 0 1 0"
         id="feColorMatrix110" /><feFlood
         id="feFlood110"
         result="flood"
         in="fbSourceGraphic"
         flood-opacity="0.501961"
         flood-color="rgb(0,0,0)" /><feGaussianBlur
         id="feGaussianBlur110"
         result="blur"
         in="fbSourceGraphic"
         stdDeviation="5.000000" /><feOffset
         id="feOffset110"
         result="offset"
         in="blur"
         dx="0.000000"
         dy="0.000000" /><feComposite
         id="feComposite111"
         result="comp1"
         operator="in"
         in="flood"
         in2="offset" /><feComposite
         id="feComposite112"
         result="comp2"
         operator="over"
         in="fbSourceGraphic"
         in2="comp1" /></filter></defs><g
     id="g1064"
     transform="translate(-448.39395,-208.4252)"><path
       id="rect586"
       style="font-variation-settings:'wdth' 75, 'wght' 800;display:inline;mix-blend-mode:normal;fill:url(#linearGradient914);stroke:#ffffff;stroke-width:7.6;stroke-linecap:square;stroke-linejoin:bevel;stroke-miterlimit:5.4;stroke-dasharray:none;stroke-opacity:1;paint-order:stroke markers fill;filter:url(#filter23)"
       d="M 466.59394,226.6252 V 454.44821 H 877.40599 V 226.6252 Z" /><rect
       style="fill:#000000;fill-opacity:1;fill-rule:nonzero;stroke:none;stroke-width:4.6;stroke-linecap:square;stroke-linejoin:round;stroke-miterlimit:5.4;stroke-dasharray:none;stroke-opacity:1;paint-order:stroke markers fill"
       id="rect1008"
       width="384.59134"
       height="53.091202"
       x="479.99997"
       y="369.88004"
       ry="9.2177229"
       rx="9.2177229" /><path
       style="font-style:italic;font-weight:bold;font-size:64px;line-height:0;font-family:Arial;-inkscape-font-specification:'Arial, Bold Italic';white-space:pre;shape-padding:12.5154;fill:#ffffff;stroke:#bababa;stroke-width:3.3;stroke-linecap:square;stroke-linejoin:bevel;stroke-miterlimit:5.4;stroke-dasharray:none;stroke-opacity:1;paint-order:stroke markers fill"
       d="m 489.6308,404.47254 8.96875,-0.46875 q 0.1875,4.28125 1.46875,5.78125 2.0625,2.4375 7.625,2.4375 4.625,0 6.6875,-1.65625 2.0625,-1.65625 2.0625,-4 0,-2.03125 -1.6875,-3.4375 -1.1875,-1.03125 -6.53125,-3.34375 -5.3125,-2.3125 -7.78125,-3.84375 -2.4375,-1.5625 -3.84375,-4.03125 -1.40625,-2.46875 -1.40625,-5.78125 0,-5.78125 4.1875,-9.59375 4.1875,-3.8125 12.125,-3.8125 8.0625,0 12.46875,3.78125 4.4375,3.78125 4.875,10.0625 l -9.03125,0.40625 q -0.34375,-3.28125 -2.375,-5.03125 -2.03125,-1.75 -6,-1.75 -3.90625,0 -5.59375,1.375 -1.65625,1.375 -1.65625,3.46875 0,1.96875 1.53125,3.25 1.53125,1.3125 6.78125,3.59375 7.90625,3.40625 10.0625,5.53125 3.21875,3.125 3.21875,8.03125 0,6.0625 -4.8125,10.375 -4.78125,4.28125 -13.34375,4.28125 -5.90625,0 -10.25,-1.96875 -4.3125,-2 -6.09375,-5.53125 -1.78125,-3.53125 -1.65625,-8.125 z m 41.25,14.84375 9.5625,-45.8125 h 33.96875 l -1.59375,7.65625 h -24.53125 l -2.1875,10.40625 h 23.71875 l -1.59375,7.65625 H 544.5058 l -2.875,12.4375 h 26.65625 l -1.625,7.65625 z m 42.9375,0 9.59375,-45.8125 h 9.40625 l -7.96875,38.15625 h 23.3125 l -1.59375,7.65625 z m 38.84375,0 9.5625,-45.8125 h 33.96875 l -1.59375,7.65625 H 630.0683 l -2.1875,10.40625 h 23.71875 l -1.59375,7.65625 h -23.71875 l -2.875,12.4375 h 26.65625 l -1.625,7.65625 z m 75.875,-16.5 9.5,1.4375 q -2.78125,7.71875 -8.34375,11.8125 -5.5625,4.0625 -13.03125,4.0625 -8.40625,0 -13.15625,-5.0625 -4.71875,-5.0625 -4.71875,-14.6875 0,-7.8125 3.15625,-14.28125 3.1875,-6.5 8.8125,-9.9375 5.625,-3.4375 12.25,-3.4375 7.4375,0 12.03125,4 4.59375,3.96875 5.40625,10.84375 l -9.03125,0.875 q -0.75,-4 -2.90625,-5.78125 -2.125,-1.8125 -5.6875,-1.8125 -3.90625,0 -7.3125,2.375 -3.375,2.375 -5.40625,7.4375 -2.03125,5.03125 -2.03125,10.0625 0,5.5 2.625,8.5 2.65625,3 6.59375,3 3.65625,0 6.6875,-2.375 3.0625,-2.375 4.5625,-7.03125 z m 32.96875,16.5 h -9.4375 l 8,-38.15625 h -13.4375 l 1.59375,-7.65625 h 36.09375 l -1.59375,7.65625 h -13.25 z m 18.75,0 9.59375,-45.8125 h 9.40625 l -9.5625,45.8125 z m 21.15625,-17.96875 q 0,-4.0625 1.21875,-8.5625 1.59375,-6.03125 4.84375,-10.46875 3.28125,-4.4375 8.25,-7 4.96875,-2.59375 11.3125,-2.59375 8.5,0 13.71875,5.28125 5.25,5.28125 5.25,14 0,7.25 -3.40625,14.03125 -3.40625,6.78125 -9.25,10.4375 -5.84375,3.65625 -13.21875,3.65625 -6.40625,0 -10.75,-2.90625 -4.34375,-2.90625 -6.15625,-7.1875 -1.8125,-4.3125 -1.8125,-8.6875 z m 9.3125,-0.1875 q 0,4.71875 2.875,7.90625 2.875,3.1875 7.5625,3.1875 3.8125,0 7.3125,-2.5 3.53125,-2.53125 5.8125,-7.625 2.3125,-5.125 2.3125,-9.96875 0,-5.40625 -2.90625,-8.46875 -2.90625,-3.09375 -7.40625,-3.09375 -6.90625,0 -11.25,6.4375 -4.3125,6.4375 -4.3125,14.125 z m 74.125,18.15625 h -8.78125 l -12.375,-30.78125 -6.4375,30.78125 h -8.78125 l 9.5625,-45.8125 h 8.8125 l 12.40625,30.65625 6.40625,-30.65625 h 8.75 z"
       id="text925"
       aria-label="SELECTION&#10;" /><g
       transform="translate(48.6355,78.9314)"
       id="g1008"><path
         style="font-style:italic;font-weight:bold;font-size:85.3333px;line-height:0;font-family:Arial;-inkscape-font-specification:'Arial, Bold Italic';white-space:pre;fill:url(#linearGradient1063);fill-opacity:1;stroke:#000000;stroke-width:4.6;stroke-linecap:square;stroke-linejoin:bevel;stroke-miterlimit:5.4;stroke-opacity:1;paint-order:stroke markers fill"
         d="m 514.34373,231.09743 12.66666,1.91667 q -3.70833,10.29166 -11.12499,15.74999 -7.41667,5.41667 -17.375,5.41667 -11.20833,0 -17.54166,-6.75 -6.29166,-6.75 -6.29166,-19.58332 0,-10.41667 4.20833,-19.04166 4.25,-8.66667 11.75,-13.25 7.49999,-4.58333 16.33332,-4.58333 9.91667,0 16.04166,5.33333 6.125,5.29167 7.20833,14.45833 l -12.04166,1.16667 q -1,-5.33334 -3.875,-7.70834 -2.83333,-2.41666 -7.58333,-2.41666 -5.20833,0 -9.74999,3.16666 -4.5,3.16667 -7.20833,9.91667 -2.70834,6.70833 -2.70834,13.41666 0,7.33333 3.5,11.33333 3.54167,4 8.79167,4 4.87499,0 8.91666,-3.16667 4.08333,-3.16667 6.08333,-9.375 z m 59.49997,-5.29166 h -23.62499 l -5.70833,27.29165 h -12.58332 l 12.79166,-61.0833 h 12.54166 l -4.91667,23.58332 h 23.62499 l 4.95833,-23.58332 h 12.54167 l -12.75,61.0833 h -12.58333 z m 59.49998,13.79166 h -24.20832 l -7.33334,13.49999 h -12.91666 l 34.54166,-61.0833 h 13.95832 l 9.91667,61.0833 h -11.91667 z m -1.54167,-10.16666 -3.54166,-24.58333 -14.75,24.58333 z m 35.99999,23.66665 h -12.58333 l 12.79166,-61.0833 h 27.12499 q 7,0 10.875,1.45833 3.91666,1.41667 6.29166,5.25 2.41667,3.83333 2.41667,9.29166 0,7.79166 -4.66667,12.87499 -4.66666,5.04167 -14.12499,6.25 2.41666,2.16667 4.54166,5.70833 4.20833,7.16667 9.375,20.24999 h -13.5 q -1.62499,-5.16666 -6.37499,-16.12499 -2.58333,-5.91666 -5.5,-7.95833 -1.79167,-1.20833 -6.25,-1.20833 h -5.125 z m 7.20833,-34.45831 h 6.66666 q 10.125,0 13.41667,-1.20834 3.33333,-1.20833 5.20833,-3.79166 1.875,-2.58333 1.875,-5.41667 0,-3.33333 -2.70834,-4.99999 -1.66666,-1 -7.20833,-1 H 678.427 Z m 66.62496,34.45831 h -12.58333 l 10.66667,-50.87497 h -17.91666 l 2.125,-10.20833 h 48.12498 l -2.125,10.20833 h -17.66666 z"
         id="text923"
         aria-label="CHART &#10;" /></g></g></svg>
