<?xml version="1.0" encoding="UTF-8" standalone="no"?>
<!-- Created with Inkscape (http://www.inkscape.org/) -->

<svg
   version="1.1"
   id="svg1"
   width="1920"
   height="91.081543"
   viewBox="0 0 1920 91.081543"
   sodipodi:docname="breakbeat-start-menu-user-navigation-assist.svg"
   inkscape:version="1.3.2 (091e20e, 2023-11-25, custom)"
   xml:space="preserve"
   inkscape:export-filename="..\png\breakbeat-start-menu-user-navigation-assist.png"
   inkscape:export-xdpi="96"
   inkscape:export-ydpi="96"
   xmlns:inkscape="http://www.inkscape.org/namespaces/inkscape"
   xmlns:sodipodi="http://sodipodi.sourceforge.net/DTD/sodipodi-0.dtd"
   xmlns="http://www.w3.org/2000/svg"
   xmlns:svg="http://www.w3.org/2000/svg"><sodipodi:namedview
     id="namedview1"
     pagecolor="#000000"
     bordercolor="#000000"
     borderopacity="0"
     inkscape:showpageshadow="2"
     inkscape:pageopacity="0.0"
     inkscape:pagecheckerboard="false"
     inkscape:deskcolor="#d1d1d1"
     showgrid="false"
     inkscape:zoom="0.45254834"
     inkscape:cx="921.44852"
     inkscape:cy="-332.56116"
     inkscape:window-width="1920"
     inkscape:window-height="1009"
     inkscape:window-x="-8"
     inkscape:window-y="-8"
     inkscape:window-maximized="1"
     inkscape:current-layer="layer3"
     borderlayer="false"
     showborder="false"
     inkscape:clip-to-page="true" /><defs
     id="defs1"><rect
       x="925.75"
       y="1022"
       width="121"
       height="63.75"
       id="rect10" /><rect
       x="1204.91"
       y="1034.9998"
       width="265.87216"
       height="110.51323"
       id="rect4" /><linearGradient
       id="swatch910"
       inkscape:swatch="solid"><stop
         style="stop-color:#000000;stop-opacity:1;"
         offset="0"
         id="stop910" /></linearGradient><linearGradient
       id="swatch880"
       inkscape:swatch="solid"><stop
         style="stop-color:#e5e5e5;stop-opacity:1;"
         offset="0"
         id="stop880" /></linearGradient><linearGradient
       id="swatch13"
       inkscape:swatch="solid"><stop
         style="stop-color:#ffffff;stop-opacity:1;"
         offset="0"
         id="stop13" /></linearGradient><linearGradient
       id="swatch9"
       inkscape:swatch="solid"><stop
         style="stop-color:#000000;stop-opacity:1;"
         offset="0"
         id="stop9" /></linearGradient><linearGradient
       id="swatch2"
       inkscape:swatch="solid"
       gradientTransform="translate(0,1014.9765)"><stop
         style="stop-color:#ffffff;stop-opacity:1;"
         offset="0"
         id="stop2" /></linearGradient><linearGradient
       id="swatch1"
       inkscape:swatch="solid"><stop
         style="stop-color:#000000;stop-opacity:1;"
         offset="0"
         id="stop1" /></linearGradient><linearGradient
       id="linearGradient14-4"
       inkscape:swatch="gradient"><stop
         style="stop-color:#1b1b1b;stop-opacity:1;"
         offset="0"
         id="stop17-9" /><stop
         style="stop-color:#000000;stop-opacity:0;"
         offset="1"
         id="stop18-4" /></linearGradient><linearGradient
       id="linearGradient14-1-5"
       inkscape:swatch="gradient"><stop
         style="stop-color:#000000;stop-opacity:1;"
         offset="0"
         id="stop14-1" /><stop
         style="stop-color:#000000;stop-opacity:0;"
         offset="1"
         id="stop15-3" /></linearGradient></defs><g
     inkscape:groupmode="layer"
     id="layer3"
     inkscape:label="user-interface-navigation-indication"
     style="display:inline"
     transform="translate(0,-988.91797)"><rect
       style="font-variation-settings:'wdth' 75, 'wght' 800;fill:#000000;fill-opacity:1;fill-rule:evenodd;stroke:none;stroke-width:8.93921;stroke-linecap:square;stroke-miterlimit:5.4;stroke-opacity:1;paint-order:stroke markers fill"
       id="rect3"
       width="1920"
       height="91.081581"
       x="0"
       y="988.91797" /><g
       id="g7"
       transform="translate(-23.330983)"><path
         d="m 981.73297,1025.1566 c 15.8095,0 19.11033,0.2548 20.42773,1.5723 1.1665,1.1664 1.5723,3.6302 1.5723,9.5644 0,4.3969 -0.4658,8.8659 -1.0352,9.9297 -0.9698,1.8122 -2.2833,1.9336 -20.80073,1.9336 -14.0393,0 -20.1125,-0.3468 -20.9649,-1.1992 -0.75,-0.7501 -1.1992,-4.4742 -1.1992,-9.9297 0,-6.6017 0.3837,-9.1103 1.5723,-10.2988 1.3174,-1.3175 4.6182,-1.5723 20.4277,-1.5723 z"
         id="path397-8"
         style="fill:#ffffff;fill-opacity:1" /><text
         xml:space="preserve"
         id="text3"
         style="font-style:normal;font-variant:normal;font-weight:normal;font-stretch:normal;font-size:48px;line-height:0;font-family:'Open Sans';-inkscape-font-specification:'Open Sans, @wght=300,wdth=75.0';font-variant-ligatures:normal;font-variant-caps:normal;font-variant-numeric:normal;font-variant-east-asian:normal;font-variation-settings:'wdth' 75, 'wght' 300;white-space:pre;shape-inside:url(#rect4);display:inline;fill:#ffffff;fill-opacity:1;fill-rule:evenodd;stroke:#e5e5e5;stroke-width:8.886;stroke-linecap:square;stroke-miterlimit:5.4;stroke-opacity:1;paint-order:stroke markers fill"
         transform="translate(-360.24034,3.4878421)"><tspan
           x="1204.9102"
           y="1048.6737"
           id="tspan6"><tspan
             style="font-stretch:condensed;-inkscape-font-specification:'Open Sans Condensed';stroke:none"
             id="tspan5">select</tspan></tspan></text><path
         style="display:inline;fill:#ffffff;fill-opacity:1"
         d="m 832.25012,1056.9615 c 1.6946,-1.6947 1.6946,-39.9054 0,-41.6 -0.8926,-0.8926 -11.2589,-1.2 -40.4649,-1.2 -36.3881,0 -39.3302,0.1282 -40.1579,1.75 -1.4213,2.7848 -0.7074,38.9062 0.8049,40.7284 1.0906,1.3141 6.5366,1.5216 39.9403,1.5216 28.7492,0 38.9856,-0.3081 39.8776,-1.2 z"
         id="path154" /><path
         style="fill:#000000;fill-opacity:1;stroke-width:1.12722"
         d="m 771.00465,1039.9234 c 0,-1.3822 1.82369,-1.87 8.0272,-2.1469 l 8.0272,-0.3583 0.32457,-3.9869 c 0.24112,-2.9618 -0.0918,-3.987 -1.29471,-3.987 -0.92876,0 -1.61928,1.0463 -1.61928,2.4535 0,2.2019 -0.69051,2.4535 -6.73249,2.4535 -5.29392,0 -6.73249,-0.3932 -6.73249,-1.8401 0,-2.2693 0.009,-2.2694 -3.96334,0.077 -4.67771,2.7639 -4.8461,3.8743 -1.00782,6.646 4.07334,2.9414 4.97116,3.0657 4.97116,0.6885 z"
         id="path156" /><text
         xml:space="preserve"
         id="text10"
         style="font-style:normal;font-variant:normal;font-weight:normal;font-stretch:condensed;font-size:14.6667px;line-height:0;font-family:'Open Sans';-inkscape-font-specification:'Open Sans Condensed';font-variant-ligatures:normal;font-variant-caps:normal;font-variant-numeric:normal;font-variant-east-asian:normal;white-space:pre;shape-inside:url(#rect10);display:inline;fill:#000000;fill-opacity:1;fill-rule:evenodd;stroke:none;stroke-width:8.886;stroke-linecap:square;stroke-miterlimit:5.4;stroke-opacity:1;paint-order:stroke markers fill"
         transform="translate(-135.71113,14.49988)"><tspan
           x="925.75"
           y="1026.1781"
           id="tspan9"><tspan
             style="font-weight:600;font-stretch:normal;-inkscape-font-specification:'Open Sans Semi-Bold'"
             id="tspan8">Enter</tspan></tspan></text><path
         d="m 979.74307,1033.15 c -0.7383,0.1311 -1.6685,0.5816 -2.7645,1.3491 -3.2138,2.2511 -3.242,2.4515 -0.5541,4.0144 1.5555,0.9042 3.3481,1.6635 3.9841,1.6894 0.636,0.026 1.1564,-0.6458 1.1564,-1.4938 0,-0.848 1.908,-1.6371 4.2401,-1.7526 4.1672,-0.2063 4.1739,-0.2205 0.3854,-0.9245 -2.12,-0.3941 -4.2986,-1.4345 -4.8423,-2.3098 -0.3204,-0.5158 -0.8667,-0.7034 -1.6051,-0.5722 z"
         id="path387-1"
         style="stroke-width:1.54184" /><text
         xml:space="preserve"
         style="font-style:normal;font-variant:normal;font-weight:normal;font-stretch:condensed;font-size:48px;line-height:0;font-family:Sans;-inkscape-font-specification:'Sans, Condensed';font-variant-ligatures:normal;font-variant-caps:normal;font-variant-numeric:normal;font-variant-east-asian:normal;fill:#ffffff;fill-rule:evenodd;stroke-width:8.886;stroke-linecap:square;stroke-miterlimit:5.4;paint-order:stroke markers fill"
         x="1065.733"
         y="1049.8975"
         id="text7"><tspan
           sodipodi:role="line"
           id="tspan7"
           x="1065.733"
           y="1049.8975"
           style="font-style:normal;font-variant:normal;font-weight:normal;font-stretch:normal;font-size:48px;font-family:'Open Sans';-inkscape-font-specification:'Open Sans, @wdth=75.0';font-variant-ligatures:normal;font-variant-caps:normal;font-variant-numeric:normal;font-variant-east-asian:normal;font-variation-settings:'wdth' 75">up/down</tspan></text><path
         d="m 1036.3414,1025.6576 c 10.6589,0 19.0414,0.4301 20.1719,1.0352 1.6987,0.9091 1.9336,2.1644 1.9336,10.3007 0,5.8727 -0.4386,9.7042 -1.1992,10.4649 -0.8524,0.8524 -6.9256,1.1992 -20.9649,1.1992 -18.5174,0 -19.8309,-0.1214 -20.8007,-1.9336 -0.5694,-1.0638 -1.0352,-5.4948 -1.0352,-9.8457 0,-6.3938 0.3501,-8.2288 1.8281,-9.5664 1.561,-1.4126 4.5001,-1.6543 20.0664,-1.6543 z"
         id="path372-7"
         style="fill:#ffffff;fill-opacity:1" /><path
         d="m 1040.1301,1033.1149 c -0.7372,-0.044 -1.276,0.1853 -1.5928,0.6845 -0.533,0.84 -2.7203,1.8455 -4.8602,2.2349 -3.8237,0.6957 -3.817,0.7096 0.3891,0.9136 2.3538,0.1143 4.2797,0.894 4.2797,1.732 0,0.838 0.9638,1.5237 2.1428,1.5237 1.1792,0 2.9751,-0.9799 3.991,-2.1784 1.4815,-1.7478 1.1733,-2.5335 -1.5623,-3.9669 -1.1146,-0.5841 -2.0501,-0.8996 -2.7873,-0.9434 z"
         id="path386-3"
         style="stroke-width:1.53989" /></g></g></svg>
