<?xml version="1.0" encoding="UTF-8" standalone="no"?>
<!-- Created with Inkscape (http://www.inkscape.org/) -->

<svg
   version="1.1"
   id="svg1"
   width="143.69305"
   height="78.957336"
   viewBox="0 0 143.69305 78.957336"
   sodipodi:docname="breakbeat-start-menu-design-indication-2x.svg"
   inkscape:version="1.3.2 (091e20e, 2023-11-25, custom)"
   xml:space="preserve"
   inkscape:export-filename="breakbeat-start-menu-logo-2x.svg"
   inkscape:export-xdpi="96"
   inkscape:export-ydpi="96"
   xmlns:inkscape="http://www.inkscape.org/namespaces/inkscape"
   xmlns:sodipodi="http://sodipodi.sourceforge.net/DTD/sodipodi-0.dtd"
   xmlns="http://www.w3.org/2000/svg"
   xmlns:svg="http://www.w3.org/2000/svg"><sodipodi:namedview
     id="namedview1"
     pagecolor="#000000"
     bordercolor="#000000"
     borderopacity="0"
     inkscape:showpageshadow="2"
     inkscape:pageopacity="0.0"
     inkscape:pagecheckerboard="false"
     inkscape:deskcolor="#d1d1d1"
     showgrid="false"
     inkscape:zoom="0.45254834"
     inkscape:cx="1080.5476"
     inkscape:cy="551.32232"
     inkscape:window-width="1920"
     inkscape:window-height="1009"
     inkscape:window-x="-8"
     inkscape:window-y="-8"
     inkscape:window-maximized="1"
     inkscape:current-layer="layer3"
     borderlayer="false"
     showborder="false"
     inkscape:clip-to-page="true" /><defs
     id="defs1"><linearGradient
       id="swatch910"
       inkscape:swatch="solid"><stop
         style="stop-color:#000000;stop-opacity:1;"
         offset="0"
         id="stop910" /></linearGradient><linearGradient
       id="swatch880"
       inkscape:swatch="solid"><stop
         style="stop-color:#e5e5e5;stop-opacity:1;"
         offset="0"
         id="stop880" /></linearGradient><linearGradient
       id="swatch13"
       inkscape:swatch="solid"><stop
         style="stop-color:#ffffff;stop-opacity:1;"
         offset="0"
         id="stop13" /></linearGradient><linearGradient
       id="swatch9"
       inkscape:swatch="solid"><stop
         style="stop-color:#000000;stop-opacity:1;"
         offset="0"
         id="stop9" /></linearGradient><linearGradient
       id="swatch2"
       inkscape:swatch="solid"
       gradientTransform="translate(897.19844,846.20894)"><stop
         style="stop-color:#ffffff;stop-opacity:1;"
         offset="0"
         id="stop2" /></linearGradient><linearGradient
       id="swatch1"
       inkscape:swatch="solid"><stop
         style="stop-color:#000000;stop-opacity:1;"
         offset="0"
         id="stop1" /></linearGradient><linearGradient
       id="linearGradient14-4"
       inkscape:swatch="gradient"><stop
         style="stop-color:#1b1b1b;stop-opacity:1;"
         offset="0"
         id="stop17-9" /><stop
         style="stop-color:#000000;stop-opacity:0;"
         offset="1"
         id="stop18-4" /></linearGradient><linearGradient
       id="linearGradient14-1-5"
       inkscape:swatch="gradient"><stop
         style="stop-color:#000000;stop-opacity:1;"
         offset="0"
         id="stop14-1" /><stop
         style="stop-color:#000000;stop-opacity:0;"
         offset="1"
         id="stop15-3" /></linearGradient></defs><g
     transform="translate(-686.914,-1110.7416)"
     id="g140"
     style="display:inline;fill:#000000;fill-opacity:1"
     inkscape:label="exit-button"><g
       transform="translate(-198.943,323.736)"
       id="g139"><g
         style="font-size:96px;line-height:0;font-family:'Open Sans';-inkscape-font-specification:'Open Sans, @wght=800,wdth=75.0';font-variation-settings:'wdth' 75, 'wght' 800;white-space:pre;fill:#000000;fill-opacity:1;fill-rule:evenodd;stroke-width:8.886;stroke-linecap:square;stroke-miterlimit:5.4;paint-order:stroke markers fill"
         id="g138"><path
           d="m 918.857,861.49 h -33 l 3.536,3.536 h 33 z"
           id="path76" /><path
           d="m 885.857,861.49 v -68.531 l 3.536,3.535 v 68.532 z"
           id="path77" /><path
           d="m 885.857,792.959 h 33 l 3.536,3.535 h -33 z"
           id="path78" /><path
           d="m 918.857,792.959 v 13.828 l 3.536,3.535 v -13.828 z"
           id="path79" /><path
           d="M 918.857,806.787 H 902.17 l 3.535,3.535 h 16.688 z"
           id="path80" /><path
           d="m 902.17,806.787 v 12.375 l 3.535,3.535 v -12.375 z"
           id="path81" /><path
           d="m 902.17,819.162 h 15.469 l 3.535,3.535 h -15.469 z"
           id="path82" /><path
           d="m 917.639,819.162 v 13.828 l 3.535,3.536 v -13.829 z"
           id="path83" /><path
           d="M 917.639,832.99 H 902.17 l 3.535,3.536 h 15.469 z"
           id="path84" /><path
           d="m 902.17,832.99 v 14.484 l 3.535,3.536 v -14.484 z"
           id="path85" /><path
           d="m 902.17,847.474 h 16.687 l 3.536,3.536 h -16.688 z"
           id="path86" /><path
           d="m 918.857,847.474 v 14.016 l 3.536,3.536 V 851.01 Z"
           id="path87" /><path
           d="m 935.451,834.396 -12,-26.015 3.536,3.535 12,26.016 z"
           id="path88" /><path
           d="m 923.451,808.381 h 16.922 l 3.536,3.535 h -16.922 z"
           id="path89" /><path
           d="m 940.373,808.381 5.156,13.922 3.536,3.535 -5.156,-13.922 z"
           id="path90" /><path
           d="m 945.529,822.303 4.922,-13.922 3.536,3.535 -4.922,13.922 z"
           id="path91" /><path
           d="m 950.451,808.381 h 16.875 l 3.536,3.535 h -16.875 z"
           id="path92" /><path
           d="m 967.326,808.381 -11.812,26.015 3.535,3.536 11.813,-26.016 z"
           id="path93" /><path
           d="m 955.514,834.396 12.328,27.094 3.535,3.536 -12.328,-27.094 z"
           id="path94" /><path
           d="M 967.842,861.49 H 950.92 l 3.535,3.536 h 16.922 z"
           id="path95" /><path
           d="m 950.92,861.49 -5.766,-14.953 3.536,3.535 5.765,14.954 z"
           id="path96" /><path
           d="m 945.154,846.537 -5.484,14.953 3.535,3.536 5.485,-14.954 z"
           id="path97" /><path
           d="m 939.67,861.49 h -16.5 l 3.535,3.536 h 16.5 z"
           id="path98" /><path
           d="m 923.17,861.49 12.281,-27.094 3.536,3.536 -12.282,27.094 z"
           id="path99" /><path
           d="m 988.748,808.381 v 53.109 l 3.536,3.536 v -53.11 z"
           id="path100" /><path
           d="m 988.748,861.49 h -15.562 l 3.535,3.536 h 15.563 z"
           id="path101" /><path
           d="m 973.186,861.49 v -53.109 l 3.535,3.535 v 53.11 z"
           id="path102" /><path
           d="m 973.186,808.381 h 15.562 l 3.536,3.535 h -15.563 z"
           id="path103" /><path
           d="m 980.967,787.006 c 2.814,0 4.879,0.658 6.196,1.975 l 3.536,3.536 c -1.317,-1.317 -3.383,-1.976 -6.197,-1.976 z"
           id="path104" /><path
           d="m 987.163,788.981 c 0.029,0.029 0.057,0.058 0.085,0.087 l 3.536,3.536 c -0.028,-0.03 -0.057,-0.059 -0.085,-0.087 z"
           id="path105" /><path
           d="m 987.248,789.068 c 1.313,1.375 1.969,3.406 1.969,6.094 l 3.535,3.535 c 0,-2.687 -0.656,-4.718 -1.968,-6.093 z"
           id="path106" /><path
           d="m 989.217,795.162 c 0,2.687 -0.688,4.703 -2.063,6.047 l 3.536,3.535 c 1.375,-1.343 2.062,-3.359 2.062,-6.047 z"
           id="path107" /><path
           d="m 987.154,801.209 c -1.375,1.344 -3.437,2.015 -6.187,2.015 l 3.535,3.536 c 2.75,0 4.813,-0.672 6.188,-2.016 z"
           id="path108" /><path
           d="m 980.967,803.224 c -2.719,0 -4.781,-0.671 -6.188,-2.015 l 3.536,3.535 c 1.406,1.344 3.469,2.016 6.187,2.016 z"
           id="path109" /><path
           d="m 974.779,801.209 c -0.016,-0.016 -0.031,-0.031 -0.047,-0.047 l 3.536,3.536 c 0.015,0.015 0.031,0.031 0.047,0.046 z"
           id="path110" /><path
           d="m 974.732,801.162 c -1.343,-1.343 -2.015,-3.344 -2.015,-6 l 3.535,3.535 c 0,2.657 0.672,4.657 2.016,6.001 z"
           id="path111" /><path
           d="m 972.717,795.162 c 0,-2.75 0.656,-4.797 1.969,-6.141 l 3.535,3.536 c -1.312,1.344 -1.969,3.39 -1.969,6.14 z"
           id="path112" /><path
           d="m 974.686,789.021 c 1.312,-1.343 3.406,-2.015 6.281,-2.015 l 3.535,3.535 c -2.875,0 -4.968,0.672 -6.281,2.016 z"
           id="path113" /><path
           d="m 980.967,787.006 v 0 l 3.535,3.535 v 0 z"
           id="path114" /><path
           d="m 1019.22,849.021 c 0.97,0 2.01,-0.156 3.14,-0.468 l 3.53,3.535 c -1.12,0.313 -2.17,0.469 -3.14,0.469 z"
           id="path115" /><path
           d="m 1022.36,848.553 c 1.15,-0.344 2.37,-0.797 3.65,-1.36 l 3.54,3.536 c -1.28,0.562 -2.5,1.015 -3.66,1.359 z"
           id="path116" /><path
           d="m 1026.01,847.193 v 12.281 l 3.54,3.536 v -12.281 z"
           id="path117" /><path
           d="m 1026.01,859.474 c -1.72,0.969 -3.53,1.704 -5.43,2.204 l 3.53,3.535 c 1.91,-0.5 3.72,-1.234 5.44,-2.203 z"
           id="path118" /><path
           d="m 1020.58,861.678 c -1.88,0.5 -3.91,0.75 -6.1,0.75 l 3.54,3.535 c 2.19,0 4.22,-0.25 6.09,-0.75 z"
           id="path119" /><path
           d="m 1014.48,862.428 c -3.47,0 -6.28,-0.657 -8.44,-1.969 l 3.54,3.535 c 2.16,1.313 4.97,1.969 8.44,1.969 z"
           id="path120" /><path
           d="m 1006.04,860.459 c -0.69,-0.432 -1.32,-0.934 -1.89,-1.507 l 3.53,3.536 c 0.58,0.573 1.21,1.075 1.9,1.506 z"
           id="path121" /><path
           d="m 1004.15,858.952 c -1.21,-1.212 -2.16,-2.741 -2.84,-4.587 l 3.54,3.536 c 0.68,1.846 1.62,3.375 2.83,4.587 z"
           id="path122" /><path
           d="m 1001.31,854.365 c -1,-2.75 -1.499,-6.203 -1.499,-10.359 l 3.539,3.535 c 0,4.156 0.5,7.61 1.5,10.36 z"
           id="path123" /><path
           d="m 999.811,844.006 v -22.828 l 3.539,3.535 v 22.828 z"
           id="path124" /><path
           d="m 999.811,821.178 h -5.391 l 3.535,3.535 h 5.395 z"
           id="path125" /><path
           d="m 994.42,821.178 v -8.25 l 3.535,3.535 v 8.25 z"
           id="path126" /><path
           d="m 994.42,812.928 6.75,-4.032 3.54,3.536 -6.755,4.031 z"
           id="path127" /><path
           d="m 1001.17,808.896 3.66,-11.156 3.53,3.536 -3.65,11.156 z"
           id="path128" /><path
           d="m 1004.83,797.74 h 10.54 l 3.54,3.536 h -10.55 z"
           id="path129" /><path
           d="m 1015.37,797.74 v 10.641 l 3.54,3.535 v -10.64 z"
           id="path130" /><path
           d="m 1015.37,808.381 h 9.99 l 3.53,3.535 h -9.98 z"
           id="path131" /><path
           d="m 1025.36,808.381 v 12.797 l 3.53,3.535 v -12.797 z"
           id="path132" /><path
           d="m 1025.36,821.178 h -9.99 l 3.54,3.535 h 9.98 z"
           id="path133" /><path
           d="m 1015.37,821.178 v 22.64 l 3.54,3.536 v -22.641 z"
           id="path134" /><path
           d="m 1015.37,843.818 c 0,1.719 0.32,3.016 0.94,3.891 l 3.54,3.535 c -0.63,-0.875 -0.94,-2.172 -0.94,-3.89 z"
           id="path135" /><path
           d="m 1016.31,847.709 c 0.1,0.14 0.21,0.269 0.33,0.387 l 3.53,3.535 c -0.11,-0.118 -0.22,-0.247 -0.32,-0.387 z"
           id="path136" /><path
           d="m 1016.64,848.096 c 0.61,0.617 1.47,0.925 2.58,0.925 l 3.53,3.536 c -1.1,0 -1.96,-0.309 -2.58,-0.926 z"
           id="path137" /><path
           d="m 1019.22,849.021 v 0 l 3.53,3.536 v 0 z"
           id="path138" /></g><path
         style="font-size:96px;line-height:0;font-family:'Open Sans';-inkscape-font-specification:'Open Sans, @wght=800,wdth=75.0';font-variation-settings:'wdth' 75, 'wght' 800;white-space:pre;fill:#ffffff;fill-opacity:1;fill-rule:evenodd;stroke-width:8.886;stroke-linecap:square;stroke-miterlimit:5.4;paint-order:stroke markers fill"
         d="m 918.85742,861.49001 h -33 v -68.53125 h 33 v 13.82813 h -16.6875 v 12.375 h 15.46875 v 13.82812 h -15.46875 v 14.48438 h 16.6875 z m 16.59375,-27.09375 -12,-26.01562 h 16.92188 l 5.15625,13.92187 4.92187,-13.92187 h 16.875 l -11.8125,26.01562 12.32813,27.09375 h -16.92188 l -5.76562,-14.95312 -5.48438,14.95312 h -16.5 z m 53.29688,-26.01562 v 53.10937 h -15.5625 v -53.10937 z m -7.78125,-21.375 q 4.3125,0 6.28125,2.0625 1.96875,2.0625 1.96875,6.09375 0,4.03125 -2.0625,6.04687 -2.0625,2.01563 -6.1875,2.01563 -4.07813,0 -6.1875,-2.01563 -2.0625,-2.01562 -2.0625,-6.04687 0,-4.125 1.96875,-6.14063 1.96875,-2.01562 6.28125,-2.01562 z m 38.25,62.01562 q 1.4531,0 3.1406,-0.46875 1.7344,-0.51562 3.6563,-1.35937 v 12.28125 q -2.5782,1.45312 -5.4375,2.20312 -2.8125,0.75 -6.0938,0.75 -5.2031,0 -8.4375,-1.96875 -3.2344,-2.01562 -4.7344,-6.09375 -1.49995,-4.125 -1.49995,-10.35937 v -22.82813 h -5.39063 v -8.25 l 6.74998,-4.03125 3.6563,-11.15625 h 10.5468 v 10.64063 h 9.9844 v 12.79687 h -9.9844 v 22.64063 q 0,2.57812 0.9375,3.89062 0.9375,1.3125 2.9063,1.3125 z"
         id="text8"
         aria-label="Exit" /></g></g></svg>
