<?xml version="1.0" encoding="UTF-8" standalone="no"?>
<!-- Created with Inkscape (http://www.inkscape.org/) -->

<svg
   version="1.1"
   id="svg1"
   width="195.54059"
   height="73.988159"
   viewBox="0 0 195.54059 73.988159"
   sodipodi:docname="breakbeat-start-menu-design-indication-2x.svg"
   inkscape:version="1.3.2 (091e20e, 2023-11-25, custom)"
   xml:space="preserve"
   inkscape:export-filename="breakbeat-start-menu-logo-2x.svg"
   inkscape:export-xdpi="96"
   inkscape:export-ydpi="96"
   xmlns:inkscape="http://www.inkscape.org/namespaces/inkscape"
   xmlns:sodipodi="http://sodipodi.sourceforge.net/DTD/sodipodi-0.dtd"
   xmlns="http://www.w3.org/2000/svg"
   xmlns:svg="http://www.w3.org/2000/svg"><sodipodi:namedview
     id="namedview1"
     pagecolor="#000000"
     bordercolor="#000000"
     borderopacity="0"
     inkscape:showpageshadow="2"
     inkscape:pageopacity="0.0"
     inkscape:pagecheckerboard="false"
     inkscape:deskcolor="#d1d1d1"
     showgrid="false"
     inkscape:zoom="0.45254834"
     inkscape:cx="1080.5476"
     inkscape:cy="551.32232"
     inkscape:window-width="1920"
     inkscape:window-height="1009"
     inkscape:window-x="-8"
     inkscape:window-y="-8"
     inkscape:window-maximized="1"
     inkscape:current-layer="layer3"
     borderlayer="false"
     showborder="false"
     inkscape:clip-to-page="true" /><defs
     id="defs1"><linearGradient
       id="swatch910"
       inkscape:swatch="solid"><stop
         style="stop-color:#000000;stop-opacity:1;"
         offset="0"
         id="stop910" /></linearGradient><linearGradient
       id="swatch880"
       inkscape:swatch="solid"><stop
         style="stop-color:#e5e5e5;stop-opacity:1;"
         offset="0"
         id="stop880" /></linearGradient><linearGradient
       id="swatch13"
       inkscape:swatch="solid"><stop
         style="stop-color:#ffffff;stop-opacity:1;"
         offset="0"
         id="stop13" /></linearGradient><linearGradient
       id="swatch9"
       inkscape:swatch="solid"><stop
         style="stop-color:#000000;stop-opacity:1;"
         offset="0"
         id="stop9" /></linearGradient><linearGradient
       id="swatch2"
       inkscape:swatch="solid"
       gradientTransform="translate(869.28058,738.97192)"><stop
         style="stop-color:#ffffff;stop-opacity:1;"
         offset="0"
         id="stop2" /></linearGradient><linearGradient
       id="swatch1"
       inkscape:swatch="solid"><stop
         style="stop-color:#000000;stop-opacity:1;"
         offset="0"
         id="stop1" /></linearGradient><linearGradient
       id="linearGradient14-4"
       inkscape:swatch="gradient"><stop
         style="stop-color:#1b1b1b;stop-opacity:1;"
         offset="0"
         id="stop17-9" /><stop
         style="stop-color:#000000;stop-opacity:0;"
         offset="1"
         id="stop18-4" /></linearGradient><linearGradient
       id="linearGradient14-1-5"
       inkscape:swatch="gradient"><stop
         style="stop-color:#000000;stop-opacity:1;"
         offset="0"
         id="stop14-1" /><stop
         style="stop-color:#000000;stop-opacity:0;"
         offset="1"
         id="stop15-3" /></linearGradient></defs><g
     inkscape:groupmode="layer"
     id="layer4"
     inkscape:label="start-button"
     style="display:inline"
     transform="translate(-862.22968,-719.99951)"><g
       transform="matrix(1.00738,0,0,1,23.412688,545.1677)"
       id="g438"
       style="fill:#000000;fill-opacity:1"><g
         style="font-size:96px;line-height:0;font-family:'Open Sans';-inkscape-font-specification:'Open Sans, @wght=800,wdth=75.0';font-variation-settings:'wdth' 75, 'wght' 800;white-space:pre;fill:#000000;fill-opacity:1;fill-rule:evenodd;stroke-width:8.886;stroke-linecap:square;stroke-miterlimit:5.4;paint-order:stroke markers fill"
         id="g437"><path
           d="m 871.203,223.535 c 0,4.25 -0.891,8.016 -2.672,11.297 l 3.51,3.535 c 1.781,-3.281 2.672,-7.047 2.672,-11.297 z"
           id="path294"
           style="fill:#000000;fill-opacity:1" /><path
           d="m 868.531,234.832 c -1.75,3.25 -4.234,5.812 -7.453,7.687 l 3.51,3.536 c 3.219,-1.875 5.703,-4.438 7.453,-7.688 z"
           id="path295"
           style="fill:#000000;fill-opacity:1" /><path
           d="m 861.078,242.519 c -3.219,1.844 -7.016,2.766 -11.39,2.766 l 3.509,3.535 c 4.375,0 8.172,-0.921 11.391,-2.765 z"
           id="path296"
           style="fill:#000000;fill-opacity:1" /><path
           d="m 849.688,245.285 c -1.969,0 -3.891,-0.141 -5.766,-0.422 l 3.51,3.536 c 1.875,0.281 3.796,0.421 5.765,0.421 z"
           id="path297"
           style="fill:#000000;fill-opacity:1" /><path
           d="m 843.922,244.863 c -1.844,-0.25 -3.688,-0.687 -5.531,-1.312 l 3.509,3.535 c 1.844,0.625 3.688,1.063 5.532,1.313 z"
           id="path298"
           style="fill:#000000;fill-opacity:1" /><path
           d="m 838.391,243.551 c -1.844,-0.625 -3.75,-1.485 -5.719,-2.579 l 3.51,3.536 c 1.968,1.094 3.875,1.953 5.718,2.578 z"
           id="path299"
           style="fill:#000000;fill-opacity:1" /><path
           d="m 832.672,240.972 v -16.5 l 3.51,3.536 v 16.5 z"
           id="path300"
           style="fill:#000000;fill-opacity:1" /><path
           d="m 832.672,224.472 c 2.687,1.813 5.437,3.235 8.25,4.266 l 3.51,3.536 c -2.813,-1.032 -5.563,-2.454 -8.25,-4.266 z"
           id="path301"
           style="fill:#000000;fill-opacity:1" /><path
           d="m 840.922,228.738 c 2.844,1 5.437,1.5 7.781,1.5 l 3.51,3.536 c -2.344,0 -4.938,-0.5 -7.781,-1.5 z"
           id="path302"
           style="fill:#000000;fill-opacity:1" /><path
           d="m 848.703,230.238 c 1.344,0 2.438,-0.219 3.281,-0.656 l 3.51,3.535 c -0.844,0.438 -1.937,0.657 -3.281,0.657 z"
           id="path303"
           style="fill:#000000;fill-opacity:1" /><path
           d="m 851.984,229.582 c 0.875,-0.438 1.516,-1.031 1.922,-1.781 l 3.51,3.535 c -0.406,0.75 -1.047,1.344 -1.922,1.781 z"
           id="path304"
           style="fill:#000000;fill-opacity:1" /><path
           d="m 853.906,227.801 c 0.438,-0.782 0.656,-1.672 0.656,-2.672 l 3.51,3.535 c 0,1 -0.219,1.891 -0.656,2.672 z"
           id="path305"
           style="fill:#000000;fill-opacity:1" /><path
           d="m 854.562,225.129 c 0,-1 -0.171,-1.922 -0.515,-2.766 l 3.51,3.536 c 0.343,0.843 0.515,1.765 0.515,2.765 z"
           id="path306"
           style="fill:#000000;fill-opacity:1" /><path
           d="m 854.047,222.363 c -0.262,-0.667 -0.769,-1.379 -1.521,-2.137 l 3.509,3.536 c 0.752,0.757 1.26,1.47 1.522,2.137 z"
           id="path307"
           style="fill:#000000;fill-opacity:1" /><path
           d="m 852.526,220.226 c -0.235,-0.236 -0.494,-0.477 -0.776,-0.722 l 3.51,3.535 c 0.282,0.246 0.541,0.486 0.775,0.723 z"
           id="path308"
           style="fill:#000000;fill-opacity:1" /><path
           d="m 851.75,219.504 c -1.188,-1.063 -3.031,-2.375 -5.531,-3.938 l 3.509,3.536 c 2.5,1.562 4.344,2.875 5.532,3.937 z"
           id="path309"
           style="fill:#000000;fill-opacity:1" /><path
           d="m 846.219,215.566 c -2,-1.281 -3.813,-2.562 -5.438,-3.844 l 3.51,3.536 c 1.625,1.281 3.437,2.562 5.437,3.844 z"
           id="path310"
           style="fill:#000000;fill-opacity:1" /><path
           d="m 840.781,211.722 c -0.763,-0.616 -1.474,-1.256 -2.134,-1.921 l 3.51,3.535 c 0.659,0.665 1.371,1.306 2.134,1.922 z"
           id="path311"
           style="fill:#000000;fill-opacity:1" /><path
           d="m 838.647,209.801 c -0.745,-0.751 -1.424,-1.532 -2.038,-2.344 l 3.51,3.535 c 0.613,0.812 1.292,1.594 2.038,2.344 z"
           id="path312"
           style="fill:#000000;fill-opacity:1" /><path
           d="m 836.609,207.457 c -1.125,-1.563 -2,-3.36 -2.625,-5.391 l 3.51,3.536 c 0.625,2.031 1.5,3.828 2.625,5.39 z"
           id="path313"
           style="fill:#000000;fill-opacity:1" /><path
           d="m 833.984,202.066 c -0.593,-2.031 -0.89,-4.422 -0.89,-7.172 l 3.509,3.536 c 0,2.75 0.297,5.14 0.891,7.172 z"
           id="path314"
           style="fill:#000000;fill-opacity:1" /><path
           d="m 833.094,194.894 c 0,-4.062 0.797,-7.593 2.39,-10.593 l 3.51,3.535 c -1.594,3 -2.391,6.531 -2.391,10.594 z"
           id="path315"
           style="fill:#000000;fill-opacity:1" /><path
           d="m 835.484,184.301 c 1.594,-3 3.938,-5.329 7.032,-6.985 l 3.509,3.536 c -3.093,1.656 -5.437,3.984 -7.031,6.984 z"
           id="path316"
           style="fill:#000000;fill-opacity:1" /><path
           d="m 842.516,177.316 c 3.093,-1.656 6.89,-2.484 11.39,-2.484 l 3.51,3.535 c -4.5,0 -8.297,0.828 -11.391,2.485 z"
           id="path317"
           style="fill:#000000;fill-opacity:1" /><path
           d="m 853.906,174.832 c 2.844,0 5.703,0.406 8.578,1.219 l 3.51,3.535 c -2.875,-0.812 -5.734,-1.219 -8.578,-1.219 z"
           id="path318"
           style="fill:#000000;fill-opacity:1" /><path
           d="m 862.484,176.051 c 2.875,0.812 5.782,2.046 8.719,3.703 l 3.51,3.535 c -2.938,-1.656 -5.844,-2.89 -8.719,-3.703 z"
           id="path319"
           style="fill:#000000;fill-opacity:1" /><path
           d="m 871.203,179.754 -4.359,14.297 3.509,3.535 4.36,-14.297 z"
           id="path320"
           style="fill:#000000;fill-opacity:1" /><path
           d="m 866.844,194.051 c -2.375,-1.5 -4.578,-2.61 -6.61,-3.329 l 3.51,3.536 c 2.031,0.719 4.234,1.828 6.609,3.328 z"
           id="path321"
           style="fill:#000000;fill-opacity:1" /><path
           d="m 860.234,190.722 c -2.031,-0.718 -3.922,-1.078 -5.672,-1.078 l 3.51,3.536 c 1.75,0 3.641,0.359 5.672,1.078 z"
           id="path322"
           style="fill:#000000;fill-opacity:1" /><path
           d="m 854.562,189.644 c -1.156,0 -2.109,0.203 -2.859,0.61 l 3.51,3.535 c 0.75,-0.406 1.703,-0.609 2.859,-0.609 z"
           id="path323"
           style="fill:#000000;fill-opacity:1" /><path
           d="m 851.703,190.254 c -0.719,0.375 -1.25,0.89 -1.594,1.547 l 3.51,3.535 c 0.344,-0.656 0.875,-1.172 1.594,-1.547 z"
           id="path324"
           style="fill:#000000;fill-opacity:1" /><path
           d="m 850.109,191.801 c -0.343,0.656 -0.515,1.406 -0.515,2.25 l 3.509,3.535 c 0,-0.844 0.172,-1.594 0.516,-2.25 z"
           id="path325"
           style="fill:#000000;fill-opacity:1" /><path
           d="m 849.594,194.051 c 0,1.218 0.203,2.265 0.609,3.14 l 3.51,3.536 c -0.406,-0.875 -0.61,-1.922 -0.61,-3.141 z"
           id="path326"
           style="fill:#000000;fill-opacity:1" /><path
           d="m 850.203,197.191 c 0.261,0.562 0.696,1.15 1.305,1.764 l 3.51,3.536 c -0.609,-0.614 -1.044,-1.202 -1.305,-1.764 z"
           id="path327"
           style="fill:#000000;fill-opacity:1" /><path
           d="m 851.508,198.955 c 0.34,0.342 0.733,0.691 1.18,1.049 l 3.509,3.535 c -0.447,-0.357 -0.84,-0.707 -1.179,-1.048 z"
           id="path328"
           style="fill:#000000;fill-opacity:1" /><path
           d="m 852.688,200.004 c 1.281,0.968 3.218,2.25 5.812,3.843 l 3.51,3.536 c -2.594,-1.594 -4.532,-2.875 -5.813,-3.844 z"
           id="path329"
           style="fill:#000000;fill-opacity:1" /><path
           d="m 858.5,203.847 c 2.75,1.688 5.062,3.469 6.938,5.344 l 3.509,3.536 c -1.875,-1.875 -4.187,-3.657 -6.937,-5.344 z"
           id="path330"
           style="fill:#000000;fill-opacity:1" /><path
           d="m 865.438,209.191 c 0.062,0.062 0.124,0.123 0.186,0.185 l 3.509,3.536 c -0.061,-0.062 -0.123,-0.124 -0.186,-0.185 z"
           id="path331"
           style="fill:#000000;fill-opacity:1" /><path
           d="m 865.624,209.376 c 1.814,1.828 3.189,3.86 4.126,6.096 l 3.51,3.536 c -0.937,-2.237 -2.313,-4.269 -4.127,-6.096 z"
           id="path332"
           style="fill:#000000;fill-opacity:1" /><path
           d="m 869.75,215.472 c 0.969,2.313 1.453,5 1.453,8.063 l 3.51,3.535 c 0,-3.062 -0.485,-5.75 -1.453,-8.062 z"
           id="path333"
           style="fill:#000000;fill-opacity:1" /><path
           d="m 871.203,223.535 v 0 l 3.51,3.535 v 0 z"
           id="path334"
           style="fill:#000000;fill-opacity:1" /><path
           d="m 899.047,231.879 c 0.969,0 2.015,-0.157 3.141,-0.469 l 3.509,3.535 c -1.125,0.313 -2.172,0.469 -3.14,0.469 z"
           id="path335"
           style="fill:#000000;fill-opacity:1" /><path
           d="m 902.188,231.41 c 1.156,-0.344 2.374,-0.797 3.656,-1.359 l 3.509,3.535 c -1.281,0.563 -2.5,1.016 -3.656,1.359 z"
           id="path336"
           style="fill:#000000;fill-opacity:1" /><path
           d="m 905.844,230.051 v 12.281 l 3.509,3.535 v -12.281 z"
           id="path337"
           style="fill:#000000;fill-opacity:1" /><path
           d="m 905.844,242.332 c -1.719,0.969 -3.532,1.703 -5.438,2.203 l 3.51,3.535 c 1.906,-0.5 3.719,-1.234 5.437,-2.203 z"
           id="path338"
           style="fill:#000000;fill-opacity:1" /><path
           d="m 900.406,244.535 c -1.875,0.5 -3.906,0.75 -6.094,0.75 l 3.51,3.535 c 2.188,0 4.219,-0.25 6.094,-0.75 z"
           id="path339"
           style="fill:#000000;fill-opacity:1" /><path
           d="m 894.312,245.285 c -3.468,0 -6.281,-0.656 -8.437,-1.969 l 3.51,3.536 c 2.156,1.312 4.968,1.968 8.437,1.968 z"
           id="path340"
           style="fill:#000000;fill-opacity:1" /><path
           d="m 885.875,243.316 c -0.703,-0.438 -1.345,-0.95 -1.925,-1.534 l 3.509,3.535 c 0.581,0.585 1.222,1.096 1.926,1.535 z"
           id="path341"
           style="fill:#000000;fill-opacity:1" /><path
           d="m 883.95,241.782 c -1.199,-1.208 -2.136,-2.728 -2.809,-4.56 l 3.509,3.536 c 0.674,1.832 1.61,3.352 2.809,4.559 z"
           id="path342"
           style="fill:#000000;fill-opacity:1" /><path
           d="m 881.141,237.222 c -1,-2.75 -1.5,-6.203 -1.5,-10.359 l 3.509,3.536 c 0,4.156 0.5,7.609 1.5,10.359 z"
           id="path343"
           style="fill:#000000;fill-opacity:1" /><path
           d="m 879.641,226.863 v -22.828 l 3.509,3.535 v 22.829 z"
           id="path344"
           style="fill:#000000;fill-opacity:1" /><path
           d="m 879.641,204.035 h -5.391 l 3.51,3.535 h 5.39 z"
           id="path345"
           style="fill:#000000;fill-opacity:1" /><path
           d="m 874.25,204.035 v -8.25 l 3.51,3.535 v 8.25 z"
           id="path346"
           style="fill:#000000;fill-opacity:1" /><path
           d="m 874.25,195.785 6.75,-4.031 3.51,3.535 -6.75,4.031 z"
           id="path347"
           style="fill:#000000;fill-opacity:1" /><path
           d="m 881,191.754 3.656,-11.157 3.51,3.536 -3.656,11.156 z"
           id="path348"
           style="fill:#000000;fill-opacity:1" /><path
           d="m 884.656,180.597 h 10.547 l 3.51,3.536 h -10.547 z"
           id="path349"
           style="fill:#000000;fill-opacity:1" /><path
           d="m 895.203,180.597 v 10.641 l 3.51,3.536 v -10.641 z"
           id="path350"
           style="fill:#000000;fill-opacity:1" /><path
           d="m 895.203,191.238 h 9.985 l 3.509,3.536 h -9.984 z"
           id="path351"
           style="fill:#000000;fill-opacity:1" /><path
           d="m 905.188,191.238 v 12.797 l 3.509,3.535 v -12.796 z"
           id="path352"
           style="fill:#000000;fill-opacity:1" /><path
           d="m 905.188,204.035 h -9.985 l 3.51,3.535 h 9.984 z"
           id="path353"
           style="fill:#000000;fill-opacity:1" /><path
           d="m 895.203,204.035 v 22.641 l 3.51,3.535 V 207.57 Z"
           id="path354"
           style="fill:#000000;fill-opacity:1" /><path
           d="m 895.203,226.676 c 0,1.718 0.313,3.015 0.938,3.89 l 3.509,3.536 c -0.625,-0.875 -0.937,-2.172 -0.937,-3.891 z"
           id="path355"
           style="fill:#000000;fill-opacity:1" /><path
           d="m 896.141,230.566 c 0.097,0.137 0.204,0.263 0.318,0.379 l 3.51,3.535 c -0.115,-0.115 -0.221,-0.241 -0.319,-0.378 z"
           id="path356"
           style="fill:#000000;fill-opacity:1" /><path
           d="m 896.459,230.945 c 0.618,0.622 1.481,0.934 2.588,0.934 l 3.51,3.535 c -1.108,0 -1.97,-0.311 -2.588,-0.934 z"
           id="path357"
           style="fill:#000000;fill-opacity:1" /><path
           d="m 899.047,231.879 v 0 l 3.51,3.535 v 0 z"
           id="path358"
           style="fill:#000000;fill-opacity:1" /><path
           d="m 933.125,190.301 c 5.208,0 9.337,1.534 12.387,4.603 l 3.51,3.536 c -3.05,-3.069 -7.179,-4.604 -12.387,-4.604 z"
           id="path359"
           style="fill:#000000;fill-opacity:1" /><path
           d="m 945.512,194.904 c 0.043,0.044 0.086,0.087 0.129,0.131 l 3.509,3.535 c -0.042,-0.043 -0.085,-0.087 -0.128,-0.13 z"
           id="path360"
           style="fill:#000000;fill-opacity:1" /><path
           d="m 945.641,195.035 c 3.093,3.156 4.64,7.984 4.64,14.484 l 3.51,3.536 c 0,-6.5 -1.547,-11.328 -4.641,-14.485 z"
           id="path361"
           style="fill:#000000;fill-opacity:1" /><path
           d="m 950.281,209.519 v 34.828 l 3.51,3.536 v -34.828 z"
           id="path362"
           style="fill:#000000;fill-opacity:1" /><path
           d="m 950.281,244.347 h -11.203 l 3.51,3.536 h 11.203 z"
           id="path363"
           style="fill:#000000;fill-opacity:1" /><path
           d="m 939.078,244.347 -2.625,-7.031 3.51,3.536 2.625,7.031 z"
           id="path364"
           style="fill:#000000;fill-opacity:1" /><path
           d="m 936.453,237.316 h -0.281 l 3.51,3.536 h 0.281 z"
           id="path365"
           style="fill:#000000;fill-opacity:1" /><path
           d="m 936.172,237.316 c -1.125,1.781 -2.328,3.266 -3.61,4.453 l 3.51,3.536 c 1.281,-1.188 2.485,-2.672 3.61,-4.453 z"
           id="path366"
           style="fill:#000000;fill-opacity:1" /><path
           d="m 932.562,241.769 c -1.25,1.188 -2.687,2.063 -4.312,2.625 l 3.51,3.536 c 1.625,-0.563 3.062,-1.438 4.312,-2.625 z"
           id="path367"
           style="fill:#000000;fill-opacity:1" /><path
           d="m 928.25,244.394 c -1.594,0.594 -3.5,0.891 -5.719,0.891 l 3.51,3.535 c 2.219,0 4.125,-0.296 5.719,-0.89 z"
           id="path368"
           style="fill:#000000;fill-opacity:1" /><path
           d="m 922.531,245.285 c -3.031,0 -5.469,-0.828 -7.312,-2.484 l 3.509,3.535 c 1.844,1.656 4.282,2.484 7.313,2.484 z"
           id="path369"
           style="fill:#000000;fill-opacity:1" /><path
           d="m 915.219,242.801 c -0.188,-0.169 -0.37,-0.343 -0.548,-0.521 l 3.51,3.535 c 0.177,0.179 0.36,0.353 0.547,0.521 z"
           id="path370"
           style="fill:#000000;fill-opacity:1" /><path
           d="m 914.671,242.28 c -1.564,-1.576 -2.726,-3.543 -3.483,-5.901 l 3.509,3.535 c 0.758,2.358 1.919,4.325 3.484,5.901 z"
           id="path371"
           style="fill:#000000;fill-opacity:1" /><path
           d="m 911.188,236.379 c -0.813,-2.625 -1.219,-5.375 -1.219,-8.25 l 3.509,3.535 c 0,2.875 0.407,5.625 1.219,8.25 z"
           id="path372"
           style="fill:#000000;fill-opacity:1" /><path
           d="m 909.969,228.129 c 0,-5.688 1.515,-9.938 4.547,-12.75 l 3.509,3.535 c -3.031,2.813 -4.547,7.063 -4.547,12.75 z"
           id="path373"
           style="fill:#000000;fill-opacity:1" /><path
           d="m 914.516,215.379 c 3.062,-2.813 7.5,-4.328 13.312,-4.547 l 3.51,3.535 c -5.813,0.219 -10.25,1.735 -13.313,4.547 z"
           id="path374"
           style="fill:#000000;fill-opacity:1" /><path
           d="m 927.828,210.832 6.938,-0.281 3.509,3.535 -6.937,0.281 z"
           id="path375"
           style="fill:#000000;fill-opacity:1" /><path
           d="m 934.766,210.551 v -1.36 l 3.509,3.536 v 1.359 z"
           id="path376"
           style="fill:#000000;fill-opacity:1" /><path
           d="m 934.766,209.191 c 0,-2.156 -0.422,-3.781 -1.266,-4.875 l 3.51,3.536 c 0.843,1.093 1.265,2.718 1.265,4.875 z"
           id="path377"
           style="fill:#000000;fill-opacity:1" /><path
           d="m 933.5,204.316 c -0.11,-0.148 -0.228,-0.285 -0.355,-0.413 l 3.51,3.536 c 0.127,0.127 0.245,0.265 0.355,0.413 z"
           id="path378"
           style="fill:#000000;fill-opacity:1" /><path
           d="m 933.145,203.903 c -0.812,-0.818 -1.975,-1.227 -3.489,-1.227 l 3.51,3.535 c 1.514,0 2.677,0.409 3.489,1.228 z"
           id="path379"
           style="fill:#000000;fill-opacity:1" /><path
           d="m 929.656,202.676 c -1.531,0 -3.234,0.328 -5.109,0.984 l 3.51,3.535 c 1.875,-0.656 3.578,-0.984 5.109,-0.984 z"
           id="path380"
           style="fill:#000000;fill-opacity:1" /><path
           d="m 924.547,203.66 c -1.844,0.625 -3.953,1.609 -6.328,2.953 l 3.509,3.536 c 2.375,-1.344 4.485,-2.329 6.329,-2.954 z"
           id="path381"
           style="fill:#000000;fill-opacity:1" /><path
           d="m 918.219,206.613 -4.031,-11.531 3.509,3.535 4.031,11.532 z"
           id="path382"
           style="fill:#000000;fill-opacity:1" /><path
           d="m 914.188,195.082 c 2.593,-1.531 5.484,-2.703 8.671,-3.516 l 3.51,3.536 c -3.187,0.812 -6.078,1.984 -8.672,3.515 z"
           id="path383"
           style="fill:#000000;fill-opacity:1" /><path
           d="m 922.859,191.566 c 3.188,-0.844 6.61,-1.265 10.266,-1.265 l 3.51,3.535 c -3.657,0 -7.078,0.422 -10.266,1.266 z"
           id="path384"
           style="fill:#000000;fill-opacity:1" /><path
           d="m 933.125,190.301 v 0 l 3.51,3.535 v 0 z"
           id="path385"
           style="fill:#000000;fill-opacity:1" /><path
           d="m 934.766,220.629 -2.907,0.187 3.51,3.536 2.906,-0.188 z"
           id="path386"
           style="fill:#000000;fill-opacity:1" /><path
           d="m 931.859,220.816 c -2.093,0.094 -3.672,0.703 -4.734,1.828 l 3.51,3.536 c 1.062,-1.125 2.64,-1.735 4.734,-1.828 z"
           id="path387"
           style="fill:#000000;fill-opacity:1" /><path
           d="m 927.125,222.644 c -1.063,1.094 -1.594,2.703 -1.594,4.828 l 3.51,3.536 c 0,-2.125 0.531,-3.734 1.594,-4.828 z"
           id="path388"
           style="fill:#000000;fill-opacity:1" /><path
           d="m 925.531,227.472 c 0,1.813 0.313,3.172 0.938,4.079 l 3.509,3.535 c -0.625,-0.906 -0.937,-2.266 -0.937,-4.078 z"
           id="path389"
           style="fill:#000000;fill-opacity:1" /><path
           d="m 926.469,231.551 c 0.112,0.163 0.235,0.311 0.368,0.445 l 3.51,3.536 c -0.133,-0.134 -0.256,-0.283 -0.369,-0.446 z"
           id="path390"
           style="fill:#000000;fill-opacity:1" /><path
           d="m 926.837,231.996 c 0.605,0.609 1.419,0.914 2.444,0.914 l 3.51,3.535 c -1.025,0 -1.84,-0.304 -2.444,-0.913 z"
           id="path391"
           style="fill:#000000;fill-opacity:1" /><path
           d="m 929.281,232.91 c 1.531,0 2.828,-0.688 3.891,-2.063 l 3.51,3.536 c -1.063,1.375 -2.36,2.062 -3.891,2.062 z"
           id="path392"
           style="fill:#000000;fill-opacity:1" /><path
           d="m 933.172,230.847 c 1.062,-1.406 1.594,-3.25 1.594,-5.531 l 3.509,3.536 c 0,2.281 -0.531,4.125 -1.593,5.531 z"
           id="path393"
           style="fill:#000000;fill-opacity:1" /><path
           d="m 934.766,225.316 v -4.687 l 3.509,3.535 v 4.688 z"
           id="path394"
           style="fill:#000000;fill-opacity:1" /><path
           d="m 985.906,190.301 c 0.625,0 1.266,0.031 1.922,0.093 l 3.51,3.536 c -0.656,-0.063 -1.297,-0.094 -1.922,-0.094 z"
           id="path395"
           style="fill:#000000;fill-opacity:1" /><path
           d="m 987.828,190.394 c 0.656,0.063 1.469,0.219 2.438,0.469 l 3.509,3.536 c -0.968,-0.25 -1.781,-0.407 -2.437,-0.469 z"
           id="path396"
           style="fill:#000000;fill-opacity:1" /><path
           d="m 990.266,190.863 -1.266,16.734 3.51,3.536 1.265,-16.734 z"
           id="path397"
           style="fill:#000000;fill-opacity:1" /><path
           d="m 989,207.597 c -0.625,-0.218 -1.328,-0.375 -2.109,-0.468 l 3.509,3.535 c 0.782,0.094 1.485,0.25 2.11,0.469 z"
           id="path398"
           style="fill:#000000;fill-opacity:1" /><path
           d="m 986.891,207.129 c -0.782,-0.094 -1.672,-0.141 -2.672,-0.141 l 3.509,3.536 c 1,0 1.891,0.046 2.672,0.14 z"
           id="path399"
           style="fill:#000000;fill-opacity:1" /><path
           d="m 984.219,206.988 c -1.532,0 -2.86,0.234 -3.985,0.703 l 3.51,3.536 c 1.125,-0.469 2.453,-0.703 3.984,-0.703 z"
           id="path400"
           style="fill:#000000;fill-opacity:1" /><path
           d="m 980.234,207.691 c -1.093,0.469 -2,1.156 -2.718,2.063 l 3.509,3.535 c 0.719,-0.906 1.625,-1.594 2.719,-2.062 z"
           id="path401"
           style="fill:#000000;fill-opacity:1" /><path
           d="m 977.516,209.754 c -0.688,0.875 -1.204,1.984 -1.547,3.328 l 3.509,3.535 c 0.344,-1.343 0.86,-2.453 1.547,-3.328 z"
           id="path402"
           style="fill:#000000;fill-opacity:1" /><path
           d="m 975.969,213.082 c -0.344,1.312 -0.516,2.844 -0.516,4.594 l 3.51,3.535 c 0,-1.75 0.172,-3.281 0.515,-4.594 z"
           id="path403"
           style="fill:#000000;fill-opacity:1" /><path
           d="m 975.453,217.676 v 26.671 l 3.51,3.536 v -26.672 z"
           id="path404"
           style="fill:#000000;fill-opacity:1" /><path
           d="m 975.453,244.347 h -15.562 l 3.509,3.536 h 15.563 z"
           id="path405"
           style="fill:#000000;fill-opacity:1" /><path
           d="m 959.891,244.347 v -53.109 l 3.509,3.536 v 53.109 z"
           id="path406"
           style="fill:#000000;fill-opacity:1" /><path
           d="m 959.891,191.238 h 11.906 l 3.51,3.536 H 963.4 Z"
           id="path407"
           style="fill:#000000;fill-opacity:1" /><path
           d="m 971.797,191.238 2.25,8.484 3.51,3.536 -2.25,-8.484 z"
           id="path408"
           style="fill:#000000;fill-opacity:1" /><path
           d="m 974.047,199.722 h 0.75 l 3.51,3.536 h -0.75 z"
           id="path409"
           style="fill:#000000;fill-opacity:1" /><path
           d="m 974.797,199.722 c 0.625,-1.437 1.469,-2.875 2.531,-4.312 l 3.51,3.535 c -1.063,1.438 -1.906,2.875 -2.531,4.313 z"
           id="path410"
           style="fill:#000000;fill-opacity:1" /><path
           d="m 977.328,195.41 c 1.063,-1.469 2.313,-2.688 3.75,-3.656 l 3.51,3.535 c -1.438,0.969 -2.688,2.188 -3.75,3.656 z"
           id="path411"
           style="fill:#000000;fill-opacity:1" /><path
           d="m 981.078,191.754 c 1.469,-0.969 3.078,-1.453 4.828,-1.453 l 3.51,3.535 c -1.75,0 -3.359,0.484 -4.828,1.453 z"
           id="path412"
           style="fill:#000000;fill-opacity:1" /><path
           d="m 985.906,190.301 v 0 l 3.51,3.535 v 0 z"
           id="path413"
           style="fill:#000000;fill-opacity:1" /><path
           d="m 1016.47,231.879 c 0.97,0 2.01,-0.157 3.14,-0.469 l 3.51,3.535 c -1.13,0.313 -2.17,0.469 -3.14,0.469 z"
           id="path414"
           style="fill:#000000;fill-opacity:1" /><path
           d="m 1019.61,231.41 c 1.16,-0.344 2.37,-0.797 3.66,-1.359 l 3.51,3.535 c -1.29,0.563 -2.5,1.016 -3.66,1.359 z"
           id="path415"
           style="fill:#000000;fill-opacity:1" /><path
           d="m 1023.27,230.051 v 12.281 l 3.51,3.535 v -12.281 z"
           id="path416"
           style="fill:#000000;fill-opacity:1" /><path
           d="m 1023.27,242.332 c -1.72,0.969 -3.54,1.703 -5.44,2.203 l 3.51,3.535 c 1.9,-0.5 3.72,-1.234 5.44,-2.203 z"
           id="path417"
           style="fill:#000000;fill-opacity:1" /><path
           d="m 1017.83,244.535 c -1.88,0.5 -3.91,0.75 -6.1,0.75 l 3.51,3.535 c 2.19,0 4.22,-0.25 6.1,-0.75 z"
           id="path418"
           style="fill:#000000;fill-opacity:1" /><path
           d="m 1011.73,245.285 c -3.46,0 -6.28,-0.656 -8.43,-1.969 l 3.51,3.536 c 2.15,1.312 4.97,1.968 8.43,1.968 z"
           id="path419"
           style="fill:#000000;fill-opacity:1" /><path
           d="m 1003.3,243.316 c -0.71,-0.439 -1.35,-0.952 -1.93,-1.539 l 3.51,3.536 c 0.58,0.586 1.22,1.099 1.93,1.539 z"
           id="path420"
           style="fill:#000000;fill-opacity:1" /><path
           d="m 1001.37,241.777 c -1.2,-1.207 -2.135,-2.725 -2.808,-4.555 l 3.508,3.536 c 0.68,1.83 1.61,3.348 2.81,4.555 z"
           id="path421"
           style="fill:#000000;fill-opacity:1" /><path
           d="m 998.562,237.222 c -1,-2.75 -1.5,-6.203 -1.5,-10.359 l 3.508,3.536 c 0,4.156 0.5,7.609 1.5,10.359 z"
           id="path422"
           style="fill:#000000;fill-opacity:1" /><path
           d="m 997.062,226.863 v -22.828 l 3.508,3.535 v 22.829 z"
           id="path423"
           style="fill:#000000;fill-opacity:1" /><path
           d="m 997.062,204.035 h -5.39 l 3.51,3.535 h 5.388 z"
           id="path424"
           style="fill:#000000;fill-opacity:1" /><path
           d="m 991.672,204.035 v -8.25 l 3.51,3.535 v 8.25 z"
           id="path425"
           style="fill:#000000;fill-opacity:1" /><path
           d="m 991.672,195.785 6.75,-4.031 3.508,3.535 -6.748,4.031 z"
           id="path426"
           style="fill:#000000;fill-opacity:1" /><path
           d="m 998.422,191.754 3.658,-11.157 3.51,3.536 -3.66,11.156 z"
           id="path427"
           style="fill:#000000;fill-opacity:1" /><path
           d="m 1002.08,180.597 h 10.55 l 3.5,3.536 h -10.54 z"
           id="path428"
           style="fill:#000000;fill-opacity:1" /><path
           d="m 1012.63,180.597 v 10.641 l 3.5,3.536 v -10.641 z"
           id="path429"
           style="fill:#000000;fill-opacity:1" /><path
           d="m 1012.63,191.238 h 9.98 l 3.51,3.536 h -9.99 z"
           id="path430"
           style="fill:#000000;fill-opacity:1" /><path
           d="m 1022.61,191.238 v 12.797 l 3.51,3.535 v -12.796 z"
           id="path431"
           style="fill:#000000;fill-opacity:1" /><path
           d="m 1022.61,204.035 h -9.98 l 3.5,3.535 h 9.99 z"
           id="path432"
           style="fill:#000000;fill-opacity:1" /><path
           d="m 1012.63,204.035 v 22.641 l 3.5,3.535 V 207.57 Z"
           id="path433"
           style="fill:#000000;fill-opacity:1" /><path
           d="m 1012.63,226.676 c -0.01,1.718 0.31,3.015 0.93,3.89 l 3.51,3.536 c -0.62,-0.875 -0.94,-2.172 -0.94,-3.891 z"
           id="path434"
           style="fill:#000000;fill-opacity:1" /><path
           d="m 1013.56,230.566 c 0.1,0.137 0.21,0.263 0.32,0.379 l 3.51,3.535 c -0.11,-0.115 -0.22,-0.241 -0.32,-0.378 z"
           id="path435"
           style="fill:#000000;fill-opacity:1" /><path
           d="m 1013.88,230.945 c 0.62,0.622 1.48,0.934 2.59,0.934 l 3.51,3.535 c -1.11,0 -1.97,-0.311 -2.59,-0.934 z"
           id="path436"
           style="fill:#000000;fill-opacity:1" /><path
           d="m 1016.47,231.879 v 0 l 3.51,3.535 v 0 z"
           id="path437"
           style="fill:#000000;fill-opacity:1" /></g><path
         d="m 871.20312,223.53494 q 0,6.375 -2.67187,11.29687 -2.625,4.875 -7.45313,7.6875 -4.82812,2.76563 -11.39062,2.76563 -2.95313,0 -5.76563,-0.42188 -2.76562,-0.375 -5.53125,-1.3125 -2.76562,-0.9375 -5.71875,-2.57812 v -16.5 q 4.03125,2.71875 8.25,4.26562 4.26563,1.5 7.78125,1.5 2.01563,0 3.28125,-0.65625 1.3125,-0.65625 1.92188,-1.78125 0.65625,-1.17187 0.65625,-2.67187 0,-1.5 -0.51563,-2.76563 -0.51562,-1.3125 -2.29687,-2.85937 -1.78125,-1.59375 -5.53125,-3.9375 -3,-1.92188 -5.4375,-3.84375 -2.4375,-1.96875 -4.17188,-4.26563 -1.6875,-2.34375 -2.625,-5.39062 -0.89062,-3.04688 -0.89062,-7.17188 0,-6.09375 2.39062,-10.59375 2.39063,-4.5 7.03125,-6.98437 4.64063,-2.48438 11.39063,-2.48438 4.26562,0 8.57812,1.21875 4.3125,1.21875 8.71875,3.70313 l -4.35937,14.29687 q -3.5625,-2.25 -6.60938,-3.32812 -3.04687,-1.07813 -5.67187,-1.07813 -1.73438,0 -2.85938,0.60938 -1.07812,0.5625 -1.59375,1.54687 -0.51562,0.98438 -0.51562,2.25 0,1.82813 0.60937,3.14063 0.60938,1.3125 2.48438,2.8125 1.92187,1.45312 5.8125,3.84375 4.125,2.53125 6.9375,5.34375 2.85937,2.8125 4.3125,6.28125 1.45312,3.46875 1.45312,8.0625 z m 27.84375,8.34375 q 1.45313,0 3.14063,-0.46875 1.73437,-0.51563 3.65625,-1.35938 v 12.28125 q -2.57813,1.45313 -5.4375,2.20313 -2.8125,0.75 -6.09375,0.75 -5.20313,0 -8.4375,-1.96875 -3.23438,-2.01563 -4.73438,-6.09375 -1.5,-4.125 -1.5,-10.35938 V 204.03494 H 874.25 v -8.25 l 6.75,-4.03125 3.65625,-11.15625 h 10.54687 v 10.64062 h 9.98438 v 12.79688 h -9.98438 v 22.64062 q 0,2.57813 0.9375,3.89063 0.9375,1.3125 2.90625,1.3125 z M 933.125,190.30056 q 7.92187,0 12.51562,4.73438 4.64063,4.73437 4.64063,14.48437 v 34.82813 h -11.20313 l -2.625,-7.03125 h -0.28125 q -1.6875,2.67187 -3.60937,4.45312 -1.875,1.78125 -4.3125,2.625 -2.39063,0.89063 -5.71875,0.89063 -4.54688,0 -7.3125,-2.48438 -2.76563,-2.48437 -4.03125,-6.42187 -1.21875,-3.9375 -1.21875,-8.25 0,-8.53125 4.54687,-12.75 4.59375,-4.21875 13.3125,-4.54688 l 6.9375,-0.28125 v -1.35937 q 0,-3.23438 -1.26562,-4.875 -1.21875,-1.64063 -3.84375,-1.64063 -2.29688,0 -5.10938,0.98438 -2.76562,0.9375 -6.32812,2.95312 l -4.03125,-11.53125 q 3.89062,-2.29687 8.67187,-3.51562 4.78125,-1.26563 10.26563,-1.26563 z m 1.64062,30.32813 -2.90625,0.1875 q -3.14062,0.14062 -4.73437,1.82812 -1.59375,1.64063 -1.59375,4.82813 0,2.71875 0.9375,4.07812 0.9375,1.35938 2.8125,1.35938 2.29687,0 3.89062,-2.0625 1.59375,-2.10938 1.59375,-5.53125 z m 51.14063,-30.32813 q 0.9375,0 1.92187,0.0937 0.98438,0.0937 2.4375,0.46875 L 989,207.59744 q -0.9375,-0.32813 -2.10938,-0.46875 -1.17187,-0.14063 -2.67187,-0.14063 -2.29688,0 -3.98438,0.70313 -1.64062,0.70312 -2.71875,2.0625 -1.03125,1.3125 -1.54687,3.32812 -0.51563,1.96875 -0.51563,4.59375 v 26.67188 h -15.5625 v -53.10938 h 11.90625 l 2.25,8.48438 h 0.75 q 0.9375,-2.15625 2.53125,-4.3125 1.59375,-2.20313 3.75,-3.65625 2.20313,-1.45313 4.82813,-1.45313 z m 30.56245,41.57813 q 1.4532,0 3.1407,-0.46875 1.7343,-0.51563 3.6562,-1.35938 v 12.28125 q -2.5781,1.45313 -5.4375,2.20313 -2.8125,0.75 -6.0937,0.75 -5.2032,0 -8.4375,-1.96875 -3.2344,-2.01563 -4.7344,-6.09375 -1.5,-4.125 -1.5,-10.35938 v -22.82812 h -5.39063 v -8.25 l 6.75,-4.03125 3.65623,-11.15625 h 10.5469 v 10.64062 h 9.9844 v 12.79688 h -9.9844 v 22.64062 q 0,2.57813 0.9375,3.89063 0.9375,1.3125 2.9062,1.3125 z"
         id="text1"
         style="font-size:96px;line-height:0;font-family:'Open Sans';-inkscape-font-specification:'Open Sans, @wght=800,wdth=75.0';font-variation-settings:'wdth' 75, 'wght' 800;white-space:pre;fill:#ffffff;fill-opacity:1;fill-rule:evenodd;stroke-width:8.886;stroke-linecap:square;stroke-miterlimit:5.4;paint-order:stroke markers fill"
         aria-label="Start" /></g></g></svg>
