<?xml version="1.0" encoding="UTF-8" standalone="no"?>
<!-- Created with Inkscape (http://www.inkscape.org/) -->

<svg
   width="76.16925mm"
   height="41.449409mm"
   viewBox="0 0 76.16925 41.449409"
   version="1.1"
   id="svg1"
   xml:space="preserve"
   inkscape:version="1.3.2 (091e20e, 2023-11-25, custom)"
   sodipodi:docname="breakbeat-chart-selection-menu-design-indication-2x.svg"
   inkscape:export-filename="breakbeat-chart-selection-menu-design-indication-2x.png"
   inkscape:export-xdpi="96"
   inkscape:export-ydpi="96"
   xmlns:inkscape="http://www.inkscape.org/namespaces/inkscape"
   xmlns:sodipodi="http://sodipodi.sourceforge.net/DTD/sodipodi-0.dtd"
   xmlns="http://www.w3.org/2000/svg"
   xmlns:svg="http://www.w3.org/2000/svg"><sodipodi:namedview
     id="namedview1"
     pagecolor="#ffffff"
     bordercolor="#000000"
     borderopacity="0.25"
     inkscape:showpageshadow="2"
     inkscape:pageopacity="0.0"
     inkscape:pagecheckerboard="0"
     inkscape:deskcolor="#d1d1d1"
     inkscape:document-units="mm"
     inkscape:zoom="0.11313708"
     inkscape:cx="3367.5962"
     inkscape:cy="1648.4428"
     inkscape:window-width="1920"
     inkscape:window-height="1009"
     inkscape:window-x="-8"
     inkscape:window-y="-8"
     inkscape:window-maximized="1"
     inkscape:current-layer="svg1"
     showgrid="false" /><defs
     id="defs1" /><g
     id="g77"
     inkscape:label="song-details"
     inkscape:export-filename="..\png\chart selection menu\breakbeat-chart-selection-menu-song-details.png"
     inkscape:export-xdpi="96"
     inkscape:export-ydpi="96"
     transform="translate(-118.50267,-719.22941)"><path
       style="fill:#ffffff;fill-opacity:1;stroke:#ffffff;stroke-width:2.8881;stroke-opacity:1"
       d="m 121.43747,757.09575 c -1.38486,-1.98707 -1.49075,-3.19475 -1.49075,-17.0029 0,-14.54158 0.0376,-14.91324 1.73568,-17.14162 l 1.73568,-2.27776 h 26.66346 26.66343 l 8.28369,9.32265 c 4.55599,5.12746 8.24304,9.8766 8.19342,10.55364 -0.0498,0.67702 -3.73272,5.15812 -8.18461,9.95799 l -8.0944,8.72704 h -27.00743 -27.00742 z m 14.20697,-8.81696 c 0.29331,-4.059 1.18295,-5.28035 3.84636,-5.28035 2.58135,0 6.01887,-1.91524 6.62214,-3.68956 0.92124,-2.70963 0.42292,-6.01412 -1.15759,-7.67605 -1.36407,-1.4343 -2.36078,-1.65188 -6.65328,-1.45231 l -5.04884,0.23472 -0.20117,10.82074 c -0.18595,10.00275 -0.10433,10.80002 1.07889,10.54686 0.92078,-0.19698 1.34552,-1.18037 1.51342,-3.50407 z m 0.41263,-8.85625 c -0.21341,-0.62724 -0.28404,-2.36249 -0.15714,-3.85613 0.18159,-2.1394 0.58942,-2.77303 1.92201,-2.9859 3.94647,-0.63051 6.56491,1.7197 5.47791,4.9168 -0.88016,2.58883 -6.50841,4.08493 -7.24268,1.92523 z m 23.08989,1.55749 c 0,-9.50116 -0.12778,-10.57027 -1.29286,-10.82354 -1.35825,-0.29516 -6.25947,3.43832 -6.25947,4.76817 0,0.42549 1.05192,0.68088 2.33762,0.56756 l 2.33764,-0.20589 -0.26724,8.3905 -0.26722,8.39052 1.70572,-0.27244 c 1.69483,-0.27064 1.70573,-0.33967 1.70573,-10.81486 z m 17.05798,3.87552 c 1.89267,-2.10409 3.44125,-4.21995 3.44125,-4.70188 0,-1.19176 -5.95177,-7.70885 -7.04015,-7.70885 -0.62484,0 -0.87184,2.30004 -0.87184,8.11817 0,4.46499 0.23161,8.11818 0.51475,8.11818 0.2831,0 2.06329,-1.72156 3.95599,-3.82562 z"
       id="path67" /></g></svg>
