<?xml version="1.0" encoding="UTF-8" standalone="no"?>
<!-- Created with Inkscape (http://www.inkscape.org/) -->

<svg
   width="1944.48mm"
   height="115.56214mm"
   viewBox="0 0 1944.48 115.56214"
   version="1.1"
   id="svg1"
   xml:space="preserve"
   inkscape:version="1.3.2 (091e20e, 2023-11-25, custom)"
   sodipodi:docname="breakbeat-chart-selection-menu-design-indication-2x.svg"
   inkscape:export-filename="breakbeat-chart-selection-menu-design-indication-2x.png"
   inkscape:export-xdpi="96"
   inkscape:export-ydpi="96"
   xmlns:inkscape="http://www.inkscape.org/namespaces/inkscape"
   xmlns:sodipodi="http://sodipodi.sourceforge.net/DTD/sodipodi-0.dtd"
   xmlns="http://www.w3.org/2000/svg"
   xmlns:svg="http://www.w3.org/2000/svg"><sodipodi:namedview
     id="namedview1"
     pagecolor="#ffffff"
     bordercolor="#000000"
     borderopacity="0.25"
     inkscape:showpageshadow="2"
     inkscape:pageopacity="0.0"
     inkscape:pagecheckerboard="0"
     inkscape:deskcolor="#d1d1d1"
     inkscape:document-units="mm"
     inkscape:zoom="0.11313708"
     inkscape:cx="3942.1205"
     inkscape:cy="2461.6156"
     inkscape:window-width="1920"
     inkscape:window-height="1009"
     inkscape:window-x="-8"
     inkscape:window-y="-8"
     inkscape:window-maximized="1"
     inkscape:current-layer="layer3"
     showgrid="false" /><defs
     id="defs1"><filter
       inkscape:label="Inset"
       inkscape:menu="Shadows and Glows"
       inkscape:menu-tooltip="Shadowy outer bevel"
       style="color-interpolation-filters:sRGB"
       id="filter16"
       x="-0.0063749998"
       y="-0.13438502"
       width="1.01275"
       height="1.26877"><feMorphology
         result="result1"
         in="SourceAlpha"
         operator="dilate"
         radius="3.6"
         id="feMorphology15" /><feGaussianBlur
         stdDeviation="3.6"
         in="result1"
         result="result0"
         id="feGaussianBlur15" /><feDiffuseLighting
         surfaceScale="-5"
         id="feDiffuseLighting15"><feDistantLight
           elevation="45"
           azimuth="225"
           id="feDistantLight15" /></feDiffuseLighting><feComposite
         in2="result0"
         operator="in"
         result="result91"
         id="feComposite15" /><feComposite
         in="SourceGraphic"
         in2="result91"
         id="feComposite16" /></filter></defs><g
     inkscape:groupmode="layer"
     id="layer3"
     inkscape:label="user-interface-navigation-indication"
     style="display:inline"
     transform="matrix(1,0,0,1.0000046,-24.760034,-997.73001)"><rect
       style="font-variation-settings:'wdth' 75, 'wght' 800;display:inline;fill:#000000;fill-opacity:1;fill-rule:evenodd;stroke:none;stroke-width:8.93921;stroke-linecap:square;stroke-miterlimit:5.4;stroke-opacity:1;paint-order:stroke markers fill;filter:url(#filter16)"
       id="rect3"
       width="1920"
       height="91.081581"
       x="37.000034"
       y="1009.9654"
       inkscape:export-filename="..\png\breakbeat-chart-selection-menu-user-navigation-assist.png"
       inkscape:export-xdpi="96"
       inkscape:export-ydpi="96" /><g
       id="g68"
       transform="translate(-344.48987,20.640943)"><path
         d="m 977.25115,1022.9588 c 15.8095,0 19.11033,0.2548 20.42773,1.5723 1.16652,1.1664 1.57232,3.6302 1.57232,9.5644 0,4.3969 -0.4658,8.8659 -1.0352,9.9297 -0.96982,1.8122 -2.28332,1.9336 -20.80075,1.9336 -14.0393,0 -20.1125,-0.3468 -20.9649,-1.1992 -0.75,-0.7501 -1.1992,-4.4742 -1.1992,-9.9297 0,-6.6017 0.3837,-9.1103 1.5723,-10.2988 1.3174,-1.3175 4.6182,-1.5723 20.4277,-1.5723 z"
         id="path397-8"
         style="fill:#ffffff;fill-opacity:1" /><path
         style="font-stretch:condensed;font-size:48px;line-height:0;font-family:'Open Sans';-inkscape-font-specification:'Open Sans Condensed';font-variation-settings:'wdth' 75, 'wght' 300;white-space:pre;fill:#ffffff;fill-rule:evenodd;stroke-width:8.886;stroke-linecap:square;stroke-miterlimit:5.4;paint-order:stroke markers fill"
         d="m 1218.7852,1042.3925 q 0,2.0859 -0.7735,3.6093 -0.7734,1.5235 -2.25,2.3438 -1.4765,0.7969 -3.6797,0.7969 -1.7578,0 -3.1875,-0.4453 -1.4062,-0.4454 -2.2968,-1.0079 v -2.4375 q 1.0312,0.7969 2.4609,1.3125 1.4531,0.5157 3,0.5157 2.2266,0 3.3281,-1.2188 1.125,-1.2422 1.125,-3.4687 0,-1.4297 -0.4922,-2.3672 -0.4687,-0.961 -1.4297,-1.711 -0.9375,-0.75 -2.3437,-1.6171 -1.6172,-1.0079 -2.8828,-2.0157 -1.2422,-1.0078 -1.9688,-2.3203 -0.7031,-1.3125 -0.7031,-3.2344 0,-2.7421 1.7344,-4.5703 1.7344,-1.8515 5.0156,-1.8515 1.5,0 2.8125,0.375 1.3125,0.375 2.4141,1.0781 l -0.9141,1.875 q -0.8906,-0.6328 -2.0156,-0.9844 -1.125,-0.3515 -2.2969,-0.3515 -2.0625,0 -3.3281,1.1484 -1.2422,1.1484 -1.2422,3.2578 0,1.2422 0.4687,2.1797 0.4688,0.9141 1.4532,1.7344 0.9843,0.7968 2.5078,1.7343 1.5703,1.0079 2.8125,1.9922 1.2422,0.961 1.9453,2.2969 0.7266,1.3125 0.7266,3.3516 z m 11.3203,-19.6641 q 2.5781,0 4.125,1.5938 1.5703,1.5937 2.2734,4.1718 0.7031,2.5782 0.7031,5.6016 v 1.8516 h -12.4218 q 0,5.4843 1.5703,8.3671 1.5937,2.8594 4.8047,2.8594 1.3125,0 2.6015,-0.4453 1.2891,-0.4453 2.6016,-1.3359 v 2.1797 q -1.1485,0.75 -2.4844,1.1484 -1.3359,0.4219 -2.8828,0.4219 -2.9531,0 -4.8281,-1.6407 -1.875,-1.664 -2.7422,-4.6171 -0.8672,-2.9766 -0.8672,-6.9141 0,-4.1016 0.8203,-7.0547 0.8438,-2.9766 2.5078,-4.5703 1.6875,-1.6172 4.2188,-1.6172 z m 0,1.9453 q -2.3203,0 -3.7032,2.3203 -1.3593,2.2969 -1.5468,7.0547 h 10.2656 q 0,-2.5312 -0.5156,-4.664 -0.5157,-2.1563 -1.6172,-3.4219 -1.1016,-1.2891 -2.8828,-1.2891 z m 14.7656,24 h -2.2734 v -36.4687 h 2.2734 z m 12.9609,-25.9453 q 2.5782,0 4.125,1.5938 1.5703,1.5937 2.2735,4.1718 0.7031,2.5782 0.7031,5.6016 v 1.8516 h -12.4219 q 0,5.4843 1.5703,8.3671 1.5938,2.8594 4.8047,2.8594 1.3125,0 2.6016,-0.4453 1.289,-0.4453 2.6015,-1.3359 v 2.1797 q -1.1484,0.75 -2.4843,1.1484 -1.336,0.4219 -2.8828,0.4219 -2.9532,0 -4.8282,-1.6407 -1.875,-1.664 -2.7422,-4.6171 -0.8671,-2.9766 -0.8671,-6.9141 0,-4.1016 0.8203,-7.0547 0.8437,-2.9766 2.5078,-4.5703 1.6875,-1.6172 4.2187,-1.6172 z m 0,1.9453 q -2.3203,0 -3.7031,2.3203 -1.3594,2.2969 -1.5469,7.0547 h 10.2657 q 0,-2.5312 -0.5157,-4.664 -0.5156,-2.1563 -1.6172,-3.4219 -1.1015,-1.2891 -2.8828,-1.2891 z m 19.5469,24.4688 q -2.7422,0 -4.5703,-1.5235 -1.8047,-1.5234 -2.6953,-4.4062 -0.8906,-2.9063 -0.8906,-6.9844 0,-4.3594 0.9843,-7.3594 0.9844,-3.0234 2.8594,-4.5937 1.8984,-1.5703 4.6172,-1.5703 1.1953,0 2.1797,0.2578 0.9844,0.2578 1.8515,0.75 l -0.75,1.8984 q -0.75,-0.4453 -1.5468,-0.6328 -0.7735,-0.2109 -1.5938,-0.2109 -1.9922,0 -3.3984,1.2656 -1.4063,1.2656 -2.1797,3.8203 -0.75,2.5313 -0.75,6.3281 0,3.375 0.6328,5.836 0.6563,2.4375 2.0156,3.7734 1.3594,1.3359 3.4922,1.3359 0.961,0 1.9453,-0.2343 1.0078,-0.2578 1.9688,-0.7266 v 2.0156 q -0.8672,0.4453 -2.0156,0.7032 -1.1485,0.2578 -2.1563,0.2578 z m 13.2422,-2.0157 q 0.6094,0 1.1953,-0.1406 0.6094,-0.1406 1.0313,-0.3515 v 1.9218 q -0.5625,0.2578 -1.2422,0.4219 -0.6563,0.1641 -1.4766,0.1641 -1.5703,0 -2.4609,-0.7032 -0.8907,-0.7031 -1.2891,-2.0859 -0.375,-1.3828 -0.375,-3.4219 v -17.789 h -2.3906 v -1.336 l 2.414,-0.5859 0.586,-6.0703 h 1.6406 v 6.0469 h 4.5703 v 1.9453 h -4.5703 v 17.7187 q 0,2.1797 0.4688,3.2344 0.4921,1.0312 1.8984,1.0312 z"
         id="text3"
         transform="translate(-364.87387,-0.2149589)"
         aria-label="select" /><path
         style="display:inline;fill:#ffffff;fill-opacity:1"
         d="m 827.29843,1052.6887 c 1.6946,-1.6947 1.6946,-39.9054 0,-41.6 -0.8926,-0.8926 -11.2589,-1.2 -40.4649,-1.2 -36.3881,0 -39.3302,0.1282 -40.1579,1.75 -1.4213,2.7848 -0.7074,38.9062 0.8049,40.7284 1.0906,1.3141 6.5366,1.5216 39.9403,1.5216 28.7492,0 38.9856,-0.3081 39.8776,-1.2 z"
         id="path154" /><path
         style="fill:#000000;fill-opacity:1;stroke-width:1.12722"
         d="m 766.05296,1036.2976 c 0,-1.3822 1.82369,-1.87 8.0272,-2.1469 l 8.0272,-0.3583 0.32457,-3.9869 c 0.24112,-2.9618 -0.0918,-3.987 -1.29471,-3.987 -0.92876,0 -1.61928,1.0463 -1.61928,2.4535 0,2.2019 -0.69051,2.4535 -6.73249,2.4535 -5.29392,0 -6.73249,-0.3932 -6.73249,-1.8401 0,-2.2693 0.009,-2.2694 -3.96334,0.077 -4.67771,2.7639 -4.8461,3.8743 -1.00782,6.646 4.07334,2.9414 4.97116,3.0657 4.97116,0.6885 z"
         id="path156" /><path
         style="font-weight:600;font-size:14.6667px;line-height:0;font-family:'Open Sans';-inkscape-font-specification:'Open Sans Semi-Bold';white-space:pre;fill-rule:evenodd;stroke-width:8.886;stroke-linecap:square;stroke-miterlimit:5.4;paint-order:stroke markers fill"
         d="m 933.0547,1026.1781 h -5.9297 v -10.4701 h 5.9297 v 1.4466 h -4.21094 v 2.8431 h 3.94597 v 1.4395 h -3.94597 v 3.2871 h 4.21094 z m 6.21616,-8.0782 q 1.3392,0 2.08399,0.6947 0.75196,0.6875 0.75196,2.2129 v 5.1706 h -1.68295 v -4.8555 q 0,-0.9238 -0.37956,-1.3822 -0.37955,-0.4655 -1.17448,-0.4655 -1.153,0 -1.60417,0.709 -0.44401,0.709 -0.44401,2.0554 v 3.9388 h -1.68295 v -7.9278 h 1.31055 l 0.23633,1.0743 h 0.0931 q 0.25781,-0.4154 0.63737,-0.6804 0.38672,-0.2721 0.85938,-0.4082 0.47982,-0.1361 0.99544,-0.1361 z m 8.13544,6.8607 q 0.32943,0 0.65169,-0.057 0.32227,-0.064 0.58724,-0.1503 v 1.2747 q -0.27929,0.1217 -0.7233,0.2077 -0.44402,0.086 -0.92384,0.086 -0.67317,0 -1.21028,-0.222 -0.53711,-0.2292 -0.85222,-0.7806 -0.3151,-0.5514 -0.3151,-1.5254 v -4.2611 h -1.08139 v -0.7519 l 1.16016,-0.5944 0.55144,-1.6973 h 1.05989 v 1.7617 h 2.27019 v 1.2819 h -2.27019 v 4.2396 q 0,0.6016 0.30079,0.8952 0.30078,0.2936 0.79492,0.2936 z m 6.00848,-6.8607 q 1.0599,0 1.81901,0.4369 0.75912,0.4368 1.16732,1.2389 0.40821,0.8021 0.40821,1.9193 v 0.9024 h -5.29233 q 0.0286,1.153 0.61588,1.776 0.59441,0.623 1.66147,0.623 0.75911,0 1.36068,-0.1432 0.60872,-0.1504 1.25325,-0.4368 v 1.3678 q -0.5944,0.2793 -1.21028,0.4082 -0.61589,0.1289 -1.47527,0.1289 -1.16732,0 -2.05534,-0.4512 -0.88086,-0.4583 -1.38217,-1.3606 -0.49414,-0.9024 -0.49414,-2.2416 0,-1.332 0.45117,-2.263 0.45118,-0.931 1.26759,-1.418 0.8164,-0.487 1.90495,-0.487 z m 0,1.2676 q -0.79493,0 -1.28907,0.5157 -0.48698,0.5156 -0.57292,1.511 h 3.60939 q -0.007,-0.5944 -0.20052,-1.0527 -0.1862,-0.4583 -0.57292,-0.7162 -0.37956,-0.2578 -0.97396,-0.2578 z m 9.30991,-1.2676 q 0.20053,0 0.43685,0.021 0.23633,0.022 0.40821,0.057 l -0.15755,1.5755 q -0.1504,-0.043 -0.3724,-0.064 -0.21485,-0.021 -0.38672,-0.021 -0.45117,0 -0.85938,0.1504 -0.4082,0.1432 -0.72331,0.444 -0.3151,0.2936 -0.49414,0.7376 -0.17904,0.4441 -0.17904,1.0313 v 4.1465 h -1.6901 v -7.9278 h 1.31771 l 0.22917,1.3965 h 0.0788 q 0.23633,-0.4225 0.58724,-0.7734 0.35091,-0.3509 0.80209,-0.5586 0.45833,-0.2149 1.0026,-0.2149 z"
         id="text10"
         transform="translate(-137.38413,10.874004)"
         aria-label="Enter" /><path
         d="m 975.26126,1030.9522 c -0.7383,0.1311 -1.6685,0.5816 -2.7645,1.3491 -3.2138,2.2511 -3.242,2.4515 -0.5541,4.0144 1.5555,0.9042 3.3481,1.6635 3.9841,1.6894 0.636,0.026 1.1564,-0.6458 1.1564,-1.4938 0,-0.848 1.908,-1.6371 4.2401,-1.7526 4.1672,-0.2063 4.1739,-0.2205 0.3854,-0.9245 -2.12,-0.3941 -4.2986,-1.4345 -4.8423,-2.3098 -0.3204,-0.5158 -0.8667,-0.7034 -1.6051,-0.5722 z"
         id="path387-1"
         style="stroke-width:1.54184" /><path
         d="m 1256.2029,1024.1895 c 15.8095,0 19.1103,0.2548 20.4277,1.5723 1.1665,1.1664 1.5723,3.6302 1.5723,9.5644 0,4.3969 -0.4658,8.8659 -1.0352,9.9297 -0.9698,1.8122 -2.2833,1.9336 -20.8007,1.9336 -14.0393,0 -20.1125,-0.3468 -20.9649,-1.1992 -0.75,-0.7501 -1.1992,-4.4742 -1.1992,-9.9297 0,-6.6017 0.3837,-9.1103 1.5723,-10.2988 1.3174,-1.3175 4.6182,-1.5723 20.4277,-1.5723 z"
         id="path397"
         style="fill:#ffffff;fill-opacity:1;stroke:none;stroke-opacity:1" /><path
         d="m 1255.8703,1028.4395 -0.2192,3.7266 c -0.1221,2.0502 -1.0553,3.968 -2.0723,4.2591 -1.3242,0.3793 -1.2307,1.3787 0.3274,3.5219 l 2.174,2.9924 2.3328,-2.8586 c 1.5244,-1.8695 1.7501,-3.1705 0.6515,-3.7567 -0.9236,-0.4929 -2.0219,-2.4681 -2.4377,-4.3901 z"
         id="path378"
         style="display:inline;stroke-width:1.50821" /><path
         style="font-size:48px;line-height:0;font-family:'Open Sans';-inkscape-font-specification:'Open Sans, @wdth=75.0';font-variation-settings:'wdth' 75;fill:#ffffff;fill-rule:evenodd;stroke-width:8.886;stroke-linecap:square;stroke-miterlimit:5.4;paint-order:stroke markers fill"
         d="m 1073.2358,1021.5798 v 25.4766 h -1.7812 l -0.1875,-4.6406 h -0.1641 q -0.4218,1.3359 -1.1718,2.5078 -0.75,1.1484 -1.9454,1.875 -1.1718,0.7265 -2.9062,0.7265 -2.0391,0 -3.3281,-0.9609 -1.2657,-0.9844 -1.875,-2.9062 -0.6094,-1.9454 -0.6094,-4.7344 v -17.3438 h 2.25 v 16.8282 q 0,3.7031 0.9844,5.3906 0.9843,1.664 2.9062,1.664 1.8281,0 3.0469,-1.0312 1.2422,-1.0547 1.875,-3.2344 0.6562,-2.1797 0.6562,-5.5078 v -14.1094 z m 16.0547,-0.4922 q 3.586,0 5.461,3.2344 1.875,3.2344 1.875,9.7969 0,4.5 -0.8907,7.4766 -0.8906,2.9765 -2.5312,4.4531 -1.6406,1.4765 -3.9375,1.4765 -1.6172,0 -2.8125,-0.7031 -1.1953,-0.7265 -1.9922,-1.8515 -0.7734,-1.1485 -1.1719,-2.4141 h -0.1406 q 0.047,0.6328 0.07,1.5234 0.047,0.8672 0.047,1.875 v 12.375 h -2.2734 v -36.75 h 1.7578 l 0.2109,4.9922 h 0.1641 q 0.5156,-1.5234 1.289,-2.7656 0.7969,-1.2656 1.9688,-1.9922 1.1953,-0.7266 2.9062,-0.7266 z m -0.375,2.0157 q -1.8047,0 -3.0937,1.2656 -1.2656,1.2422 -1.9219,3.4922 -0.6328,2.25 -0.6328,5.2969 v 2.5546 q 0,3.0704 0.6797,5.2735 0.7031,2.2031 1.9687,3.3515 1.2891,1.1485 3.0235,1.1485 1.5703,0 2.789,-1.1016 1.2422,-1.125 1.9453,-3.6094 0.7032,-2.5078 0.7032,-6.6328 0,-5.3672 -1.3125,-8.2031 -1.2891,-2.8359 -4.1485,-2.8359 z m 26.4844,-10.3594 -12.3984,34.3594 h -2.25 l 12.5156,-34.3594 z m 11.2969,34.7812 q -3.6094,0 -5.461,-3.3046 -1.8515,-3.3282 -1.8515,-9.6563 0,-6.5625 1.9219,-10.0078 1.9218,-3.4688 5.4375,-3.4688 1.5703,0 2.7656,0.6797 1.2187,0.6563 2.039,1.711 0.8204,1.0547 1.2422,2.2968 h 0.1172 q -0.047,-0.9609 -0.094,-1.7812 -0.024,-0.8438 -0.024,-1.5938 v -11.8125 h 2.2266 v 36.4688 h -1.7578 l -0.3047,-4.4063 h -0.1641 q -0.4218,1.2657 -1.2187,2.3907 -0.7969,1.125 -1.9922,1.8047 -1.1953,0.6796 -2.8828,0.6796 z m 0.375,-1.9921 q 2.789,0 4.2656,-2.5313 1.4766,-2.5312 1.4766,-6.9844 v -3.3281 q 0,-4.5234 -1.4766,-7.0312 -1.4531,-2.5079 -4.1953,-2.5079 -2.6953,0 -4.0781,2.9063 -1.3828,2.9062 -1.3828,8.5078 0,5.25 1.2656,8.1094 1.289,2.8594 4.125,2.8594 z m 30.0937,-11.25 q 0,3.2343 -0.4922,5.7187 -0.4687,2.4609 -1.4531,4.1484 -0.9609,1.6641 -2.4375,2.5313 -1.4765,0.8437 -3.4687,0.8437 -1.9688,0 -3.4688,-0.8671 -1.4765,-0.8672 -2.4844,-2.5547 -1.0078,-1.6875 -1.5234,-4.1719 -0.4922,-2.4844 -0.4922,-5.6953 0,-4.2656 0.8672,-7.1953 0.8672,-2.9297 2.625,-4.4297 1.7578,-1.5235 4.4531,-1.5235 2.7422,0 4.4766,1.5704 1.7344,1.5468 2.5547,4.5 0.8437,2.9531 0.8437,7.125 z m -13.5468,-0.047 q 0,3.7031 0.5859,6.2109 0.6094,2.4844 1.875,3.7735 1.2891,1.2656 3.2578,1.2656 1.9219,0 3.1406,-1.1953 1.2422,-1.2188 1.8282,-3.7266 0.6093,-2.5078 0.6093,-6.3047 0,-3.539 -0.5625,-6.0234 -0.539,-2.4844 -1.7812,-3.7969 -1.2422,-1.3125 -3.2813,-1.3125 -3,0 -4.3359,2.8594 -1.3359,2.8359 -1.3359,8.25 z m 34.4296,12.8203 -3.5625,-17.5781 q -0.1406,-0.586 -0.2578,-1.2188 -0.094,-0.6328 -0.2109,-1.2422 -0.094,-0.6093 -0.1875,-1.1953 -0.094,-0.6094 -0.2109,-1.1953 h -0.07 q -0.094,0.5859 -0.2109,1.1953 -0.094,0.6094 -0.2109,1.2422 -0.094,0.6328 -0.211,1.2422 -0.1172,0.5859 -0.2343,1.1953 l -3.7032,17.5547 h -2.5547 l -5.625,-25.4766 h 2.2266 l 3.4688,15.9141 q 0.2109,1.0781 0.4218,2.1562 0.211,1.0547 0.3985,2.1094 0.1875,1.0547 0.3984,2.1094 h 0.094 q 0.094,-0.6328 0.2109,-1.3828 0.1406,-0.7735 0.2812,-1.6172 0.1407,-0.8672 0.3047,-1.7344 0.1875,-0.8906 0.375,-1.7578 l 3.3516,-15.7969 h 2.4844 l 3.375,16.0313 q 0.2109,0.8906 0.3984,1.8984 0.1875,1.0078 0.3516,2.1094 0.164,1.0781 0.3515,2.2734 h 0.1172 q 0.1641,-1.125 0.2813,-1.9218 0.1406,-0.7969 0.2812,-1.5469 0.1406,-0.7735 0.3516,-1.6875 l 3.6328,-17.1563 h 2.1797 l -5.6016,25.4766 z m 22.336,-25.9688 q 2.789,0 4.2656,1.9922 1.5,1.9688 1.5,6.1875 v 17.7891 h -2.25 v -17.2266 q 0,-3.539 -1.0078,-5.1328 -0.9844,-1.5937 -2.8359,-1.5937 -2.5079,0 -4.0782,2.3672 -1.5468,2.3437 -1.5468,7.2421 v 14.3438 h -2.25 v -25.4766 h 1.7812 l 0.1875,4.6875 h 0.1641 q 0.4218,-1.3828 1.1953,-2.5547 0.7969,-1.1718 1.9922,-1.8984 1.2187,-0.7266 2.8828,-0.7266 z"
         id="text7"
         aria-label="up/down" /><path
         d="m 1025.1696,1022.9588 c 10.6589,0 19.0414,0.4301 20.1719,1.0352 1.6987,0.9091 1.9336,2.1644 1.9336,10.3007 0,5.8727 -0.4386,9.7042 -1.1992,10.4649 -0.8524,0.8524 -6.9256,1.1992 -20.9649,1.1992 -18.5173,0 -19.8308,-0.1214 -20.8006,-1.9336 -0.5694,-1.0638 -1.0352,-5.4948 -1.0352,-9.8457 0,-6.3938 0.3501,-8.2288 1.8281,-9.5664 1.561,-1.4126 4.5001,-1.6543 20.0663,-1.6543 z"
         id="path372-7"
         style="fill:#ffffff;fill-opacity:1" /><path
         d="m 1027.2966,1030.9171 c -0.7372,-0.044 -1.276,0.1853 -1.5928,0.6845 -0.533,0.84 -2.7203,1.8455 -4.8602,2.2349 -3.8237,0.6957 -3.817,0.7096 0.3891,0.9136 2.3538,0.1143 4.2797,0.894 4.2797,1.732 0,0.838 0.9638,1.5237 2.1428,1.5237 1.1792,0 2.9751,-0.9799 3.991,-2.1784 1.4815,-1.7478 1.1733,-2.5335 -1.5623,-3.9669 -1.1146,-0.5841 -2.0501,-0.8996 -2.7873,-0.9434 z"
         id="path386-3"
         style="stroke-width:1.53989" /><path
         d="m 1304.2029,1024.1895 c 15.8095,0 19.1103,0.2548 20.4277,1.5723 1.1665,1.1664 1.5723,3.6302 1.5723,9.5644 0,4.3969 -0.4658,8.8659 -1.0352,9.9297 -0.9698,1.8122 -2.2833,1.9336 -20.8007,1.9336 -14.0393,0 -20.1125,-0.3468 -20.9649,-1.1992 -0.75,-0.7501 -1.1992,-4.4742 -1.1992,-9.9297 0,-6.6017 0.3837,-9.1103 1.5723,-10.2988 1.3174,-1.3175 4.6182,-1.5723 20.4277,-1.5723 z"
         id="path577"
         style="fill:#ffffff;fill-opacity:1;stroke:none;stroke-opacity:1" /><path
         d="m 1304.2344,1042.9395 -0.2192,-3.7266 c -0.1221,-2.0502 -1.0553,-3.968 -2.0724,-4.2591 -1.3242,-0.3793 -1.2307,-1.3787 0.3274,-3.5219 l 2.1741,-2.9924 2.3328,2.8586 c 1.5244,1.8695 1.7501,3.1705 0.6515,3.7567 -0.9236,0.4929 -2.0219,2.4681 -2.4377,4.3901 z"
         id="path578"
         style="display:inline;stroke-width:1.50821" /><path
         style="font-size:48px;line-height:0;font-family:'Open Sans';-inkscape-font-specification:'Open Sans, @wdth=75.0';font-variation-settings:'wdth' 75;fill:#ffffff;fill-rule:evenodd;stroke-width:8.886;stroke-linecap:square;stroke-miterlimit:5.4;paint-order:stroke markers fill"
         d="m 1354.1653,1048.7324 q -3.6094,0 -5.461,-3.3047 -1.8515,-3.3281 -1.8515,-9.6562 0,-6.5625 1.9219,-10.0078 1.9218,-3.4688 5.4375,-3.4688 1.5703,0 2.7656,0.6797 1.2187,0.6563 2.039,1.7109 0.8204,1.0547 1.2422,2.2969 h 0.1172 q -0.047,-0.9609 -0.094,-1.7812 -0.024,-0.8438 -0.024,-1.5938 v -11.8125 h 2.2266 v 36.4688 h -1.7578 l -0.3047,-4.4063 h -0.1641 q -0.4218,1.2656 -1.2187,2.3906 -0.7969,1.125 -1.9922,1.8047 -1.1953,0.6797 -2.8828,0.6797 z m 0.375,-1.9922 q 2.789,0 4.2656,-2.5312 1.4766,-2.5313 1.4766,-6.9844 v -3.3281 q 0,-4.5235 -1.4766,-7.0313 -1.4531,-2.5078 -4.1953,-2.5078 -2.6953,0 -4.0781,2.9063 -1.3828,2.9062 -1.3828,8.5078 0,5.25 1.2656,8.1094 1.289,2.8593 4.125,2.8593 z m 17.8359,-23.9531 v 25.4766 h -2.2031 v -25.4766 z m -1.0312,-9.5391 q 0.8203,0 1.1953,0.586 0.3984,0.5859 0.3984,1.4531 0,0.9375 -0.4453,1.5 -0.4219,0.5625 -1.1953,0.5625 -0.75,0 -1.1953,-0.5625 -0.4219,-0.5859 -0.4219,-1.4766 0,-0.8906 0.3984,-1.4765 0.3985,-0.586 1.2657,-0.586 z m 15.0937,11.5079 h -3.8672 v 23.5078 h -2.2265 v -23.5078 h -3.2813 v -1.4063 l 3.2813,-0.6328 v -2.8828 q 0,-2.7656 0.4687,-4.5938 0.4688,-1.8515 1.5938,-2.7656 1.125,-0.9375 3.0703,-0.9375 0.9375,0 1.7109,0.1875 0.7969,0.1875 1.4766,0.4922 l -0.6797,1.8281 q -0.5625,-0.2578 -1.1719,-0.375 -0.6094,-0.1406 -1.1953,-0.1406 -1.7109,0 -2.3672,1.4531 -0.6562,1.4531 -0.6797,5.0156 v 2.7891 h 3.8672 z m 10.6172,0 h -3.8672 v 23.5078 h -2.2265 v -23.5078 h -3.2813 v -1.4063 l 3.2813,-0.6328 v -2.8828 q 0,-2.7656 0.4687,-4.5938 0.4688,-1.8515 1.5938,-2.7656 1.125,-0.9375 3.0703,-0.9375 0.9375,0 1.7109,0.1875 0.7969,0.1875 1.4766,0.4922 l -0.6797,1.8281 q -0.5625,-0.2578 -1.1719,-0.375 -0.6094,-0.1406 -1.1953,-0.1406 -1.7109,0 -2.3672,1.4531 -0.6562,1.4531 -0.6797,5.0156 v 2.7891 h 3.8672 z m 6.4922,-1.9688 v 25.4766 h -2.2031 v -25.4766 z m -1.0313,-9.5391 q 0.8204,0 1.1954,0.586 0.3984,0.5859 0.3984,1.4531 0,0.9375 -0.4453,1.5 -0.4219,0.5625 -1.1953,0.5625 -0.75,0 -1.1953,-0.5625 -0.4219,-0.5859 -0.4219,-1.4766 0,-0.8906 0.3984,-1.4765 0.3985,-0.586 1.2656,-0.586 z m 18.1407,35.4844 q -2.7422,0 -4.5703,-1.5234 -1.8047,-1.5235 -2.6954,-4.4063 -0.8906,-2.9062 -0.8906,-6.9843 0,-4.3594 0.9844,-7.3594 0.9844,-3.0235 2.8594,-4.5938 1.8984,-1.5703 4.6172,-1.5703 1.1953,0 2.1796,0.2578 0.9844,0.2578 1.8516,0.75 l -0.75,1.8985 q -0.75,-0.4453 -1.5469,-0.6328 -0.7734,-0.211 -1.5937,-0.211 -1.9922,0 -3.3985,1.2656 -1.4062,1.2657 -2.1796,3.8204 -0.75,2.5312 -0.75,6.3281 0,3.375 0.6328,5.8359 0.6562,2.4375 2.0156,3.7735 1.3594,1.3359 3.4922,1.3359 0.9609,0 1.9453,-0.2344 1.0078,-0.2578 1.9687,-0.7265 v 2.0156 q -0.8671,0.4453 -2.0156,0.7031 -1.1484,0.2578 -2.1562,0.2578 z m 23.2968,-25.9453 v 25.4766 h -1.7812 l -0.1875,-4.6407 h -0.1641 q -0.4218,1.336 -1.1718,2.5079 -0.75,1.1484 -1.9454,1.875 -1.1718,0.7265 -2.9062,0.7265 -2.0391,0 -3.3281,-0.9609 -1.2657,-0.9844 -1.875,-2.9063 -0.6094,-1.9453 -0.6094,-4.7343 v -17.3438 h 2.25 v 16.8281 q 0,3.7032 0.9844,5.3907 0.9843,1.664 2.9062,1.664 1.8281,0 3.0469,-1.0312 1.2422,-1.0547 1.875,-3.2344 0.6562,-2.1797 0.6562,-5.5078 v -14.1094 z m 10.0313,25.4766 h -2.2734 v -36.4688 h 2.2734 z m 12.2344,-1.5469 q 0.6093,0 1.1953,-0.1406 0.6094,-0.1407 1.0312,-0.3516 v 1.9219 q -0.5625,0.2578 -1.2422,0.4219 -0.6562,0.164 -1.4765,0.164 -1.5703,0 -2.461,-0.7031 -0.8906,-0.7031 -1.289,-2.0859 -0.375,-1.3829 -0.375,-3.4219 v -17.7891 h -2.3906 v -1.3359 l 2.414,-0.586 0.586,-6.0703 h 1.6406 v 6.0469 h 4.5703 v 1.9453 h -4.5703 v 17.7188 q 0,2.1797 0.4687,3.2343 0.4922,1.0313 1.8985,1.0313 z m 4.9687,-23.9297 h 2.2969 l 4.1953,17.0859 q 0.3281,1.2891 0.4922,2.086 0.1641,0.7969 0.2578,1.3828 0.094,0.5625 0.1641,1.1484 h 0.164 q 0.2344,-1.4062 0.4688,-2.4843 0.2344,-1.1016 0.5156,-2.2032 l 4.1719,-17.0156 h 2.2969 l -7.7579,30.6797 q -0.6093,2.2969 -1.4062,3.7031 -0.7734,1.4297 -1.8047,2.0391 -1.0078,0.6328 -2.2969,0.6328 -0.5156,0 -0.9843,-0.1172 -0.4454,-0.1172 -0.9844,-0.2812 v -2.1329 q 0.4219,0.1875 0.8906,0.3047 0.4688,0.1407 0.8672,0.1407 0.75,0 1.3594,-0.4219 0.6328,-0.3985 1.1718,-1.4063 0.5391,-1.0078 0.961,-2.8125 l 1.3359,-5.2968 z m 39.5156,19.1953 q 0,2.086 -0.7734,3.6094 -0.7734,1.5234 -2.25,2.3437 -1.4766,0.7969 -3.6797,0.7969 -1.7578,0 -3.1875,-0.4453 -1.4062,-0.4453 -2.2969,-1.0078 v -2.4375 q 1.0313,0.7969 2.461,1.3125 1.4531,0.5156 3,0.5156 2.2265,0 3.3281,-1.2187 1.125,-1.2422 1.125,-3.4688 0,-1.4297 -0.4922,-2.3672 -0.4687,-0.9609 -1.4297,-1.7109 -0.9375,-0.75 -2.3437,-1.6172 -1.6172,-1.0078 -2.8828,-2.0156 -1.2422,-1.0078 -1.9688,-2.3203 -0.7031,-1.3125 -0.7031,-3.2344 0,-2.7422 1.7344,-4.5703 1.7343,-1.8516 5.0156,-1.8516 1.5,0 2.8125,0.375 1.3125,0.375 2.4141,1.0781 l -0.9141,1.875 q -0.8906,-0.6328 -2.0156,-0.9843 -1.125,-0.3516 -2.2969,-0.3516 -2.0625,0 -3.3281,1.1484 -1.2422,1.1485 -1.2422,3.2579 0,1.2421 0.4687,2.1796 0.4688,0.9141 1.4532,1.7344 0.9843,0.7969 2.5078,1.7344 1.5703,1.0078 2.8125,1.9922 1.2422,0.9609 1.9453,2.2969 0.7265,1.3125 0.7265,3.3515 z m 11.9766,-19.664 q 2.5781,0 4.125,1.5937 1.5703,1.5938 2.2734,4.1719 0.7032,2.5781 0.7032,5.6015 v 1.8516 h -12.4219 q 0,5.4844 1.5703,8.3672 1.5938,2.8594 4.8047,2.8594 1.3125,0 2.6016,-0.4453 1.289,-0.4454 2.6015,-1.336 v 2.1797 q -1.1484,0.75 -2.4844,1.1484 -1.3359,0.4219 -2.8828,0.4219 -2.9531,0 -4.8281,-1.6406 -1.875,-1.6641 -2.7422,-4.6172 -0.8672,-2.9766 -0.8672,-6.9141 0,-4.1015 0.8203,-7.0546 0.8438,-2.9766 2.5079,-4.5704 1.6875,-1.6171 4.2187,-1.6171 z m 0,1.9453 q -2.3203,0 -3.7031,2.3203 -1.3594,2.2969 -1.5469,7.0547 h 10.2656 q 0,-2.5313 -0.5156,-4.6641 -0.5156,-2.1562 -1.6172,-3.4219 -1.1015,-1.289 -2.8828,-1.289 z m 15.6797,24 h -2.2734 v -36.4688 h 2.2734 z m 14.0156,-25.9453 q 2.5781,0 4.125,1.5937 1.5703,1.5938 2.2735,4.1719 0.7031,2.5781 0.7031,5.6015 v 1.8516 h -12.4219 q 0,5.4844 1.5703,8.3672 1.5938,2.8594 4.8047,2.8594 1.3125,0 2.6016,-0.4453 1.289,-0.4454 2.6015,-1.336 v 2.1797 q -1.1484,0.75 -2.4843,1.1484 -1.336,0.4219 -2.8829,0.4219 -2.9531,0 -4.8281,-1.6406 -1.875,-1.6641 -2.7422,-4.6172 -0.8672,-2.9766 -0.8672,-6.9141 0,-4.1015 0.8204,-7.0546 0.8437,-2.9766 2.5078,-4.5704 1.6875,-1.6171 4.2187,-1.6171 z m 0,1.9453 q -2.3203,0 -3.7031,2.3203 -1.3594,2.2969 -1.5469,7.0547 h 10.2656 q 0,-2.5313 -0.5156,-4.6641 -0.5156,-2.1562 -1.6172,-3.4219 -1.1015,-1.289 -2.8828,-1.289 z m 20.461,24.4687 q -2.7422,0 -4.5704,-1.5234 -1.8046,-1.5235 -2.6953,-4.4063 -0.8906,-2.9062 -0.8906,-6.9843 0,-4.3594 0.9844,-7.3594 0.9844,-3.0235 2.8594,-4.5938 1.8984,-1.5703 4.6171,-1.5703 1.1954,0 2.1797,0.2578 0.9844,0.2578 1.8516,0.75 l -0.75,1.8985 q -0.75,-0.4453 -1.5469,-0.6328 -0.7734,-0.211 -1.5937,-0.211 -1.9922,0 -3.3985,1.2656 -1.4062,1.2657 -2.1797,3.8204 -0.75,2.5312 -0.75,6.3281 0,3.375 0.6329,5.8359 0.6562,2.4375 2.0156,3.7735 1.3594,1.3359 3.4922,1.3359 0.9609,0 1.9453,-0.2344 1.0078,-0.2578 1.9687,-0.7265 v 2.0156 q -0.8672,0.4453 -2.0156,0.7031 -1.1484,0.2578 -2.1562,0.2578 z m 14.0859,-2.0156 q 0.6094,0 1.1953,-0.1406 0.6094,-0.1407 1.0313,-0.3516 v 1.9219 q -0.5625,0.2578 -1.2422,0.4219 -0.6563,0.164 -1.4766,0.164 -1.5703,0 -2.4609,-0.7031 -0.8907,-0.7031 -1.2891,-2.0859 -0.375,-1.3829 -0.375,-3.4219 v -17.7891 h -2.3906 v -1.3359 l 2.414,-0.586 0.586,-6.0703 h 1.6406 v 6.0469 h 4.5703 v 1.9453 h -4.5703 v 17.7188 q 0,2.1797 0.4688,3.2343 0.4921,1.0313 1.8984,1.0313 z"
         id="text68"
         aria-label="difficulty select" /><path
         d="m 1632.7046,1021.3369 c -14.5086,0 -20.7847,0.3594 -21.6657,1.2394 -0.786,0.7857 -1.2394,4.7432 -1.2394,10.8002 0,8.0141 0.2929,9.7296 1.8089,10.6127 1.0448,0.6084 9.8477,1.0658 20.8457,1.0838 16.2934,0.038 19.3095,-0.2148 20.9268,-1.677 1.5277,-1.3824 1.8894,-3.2787 1.8894,-9.8862 0,-4.4963 -0.4813,-9.0752 -1.0698,-10.1747 -1.0022,-1.8728 -2.3596,-1.9982 -21.4959,-1.9982 z"
         id="path5"
         style="fill:#ffffff;fill-opacity:1;stroke-width:1.03342" /><path
         style="font-weight:600;font-size:14.6667px;line-height:0;font-family:'Open Sans';-inkscape-font-specification:'Open Sans Semi-Bold';white-space:pre;fill-rule:evenodd;stroke-width:8.886;stroke-linecap:square;stroke-miterlimit:5.4;paint-order:stroke markers fill"
         d="m 933.0547,1026.1781 h -5.9297 v -10.4701 h 5.9297 v 1.4466 h -4.21094 v 2.8431 h 3.94597 v 1.4395 h -3.94597 v 3.2871 h 4.21094 z m 7.41213,-2.263 q 0,0.7806 -0.37956,1.3177 -0.37956,0.5371 -1.11003,0.8164 -0.7233,0.2721 -1.77604,0.2721 -0.83073,0 -1.4323,-0.1217 -0.5944,-0.1146 -1.12435,-0.3581 v -1.4538 q 0.56576,0.265 1.26758,0.4584 0.70899,0.1933 1.3392,0.1933 0.83073,0 1.19597,-0.2578 0.36523,-0.265 0.36523,-0.7018 0,-0.2578 -0.15039,-0.4584 -0.14323,-0.2076 -0.54427,-0.4225 -0.39388,-0.222 -1.16016,-0.5299 -0.75196,-0.3008 -1.26758,-0.6016 -0.51563,-0.3008 -0.7806,-0.7233 -0.26498,-0.4297 -0.26498,-1.0957 0,-1.0527 0.83073,-1.597 0.8379,-0.5515 2.2129,-0.5515 0.73047,0 1.375,0.1504 0.6517,0.1433 1.27474,0.4226 l -0.52994,1.2675 q -0.53712,-0.2363 -1.08139,-0.3867 -0.53711,-0.1575 -1.0957,-0.1575 -0.6517,0 -0.99545,0.2005 -0.33659,0.2005 -0.33659,0.5729 0,0.2793 0.16472,0.4727 0.16471,0.1933 0.56575,0.3867 0.40821,0.1933 1.13152,0.4798 0.70898,0.2721 1.22461,0.5729 0.52279,0.2936 0.80208,0.7233 0.2793,0.4297 0.2793,1.1101 z m 5.00587,2.4062 q -1.12435,0 -1.94792,-0.4368 -0.82357,-0.4369 -1.26758,-1.3392 -0.44401,-0.9024 -0.44401,-2.2917 0,-1.4466 0.48698,-2.3633 0.48698,-0.9167 1.34636,-1.3535 0.86653,-0.4369 1.98372,-0.4369 0.70899,0 1.28191,0.1433 0.58008,0.136 0.98112,0.3366 l -0.5013,1.3463 q -0.43685,-0.179 -0.89519,-0.3008 -0.45833,-0.1217 -0.88086,-0.1217 -0.69466,0 -1.16016,0.3079 -0.45833,0.308 -0.6875,0.9167 -0.22201,0.6087 -0.22201,1.5111 0,0.8737 0.22917,1.4752 0.22917,0.5944 0.68034,0.9024 0.45117,0.3008 1.11003,0.3008 0.65169,0 1.16732,-0.1576 0.51563,-0.1575 0.97396,-0.4082 v 1.461 q -0.45117,0.2578 -0.9668,0.3795 -0.51562,0.1289 -1.26758,0.1289 z"
         id="text2"
         transform="translate(693.41822,12.192041)"
         aria-label="Esc" /><path
         style="font-size:48px;line-height:0;font-family:'Open Sans';-inkscape-font-specification:'Open Sans, @wdth=75.0';font-variation-settings:'wdth' 75;fill:#ffffff;fill-rule:evenodd;stroke-width:8.886;stroke-linecap:square;stroke-miterlimit:5.4;paint-order:stroke markers fill"
         d="m 1669.5377,1011.5371 v 12.2578 q 0,0.7969 0,1.6641 0,0.8437 -0.047,1.6406 h 0.094 q 0.6562,-2.3437 2.2031,-3.6797 1.5703,-1.3594 3.8203,-1.3594 3.6797,0 5.5078,3.3282 1.8516,3.3047 1.8516,9.7031 0,4.4062 -0.8672,7.3828 -0.8437,2.9766 -2.5078,4.5 -1.6406,1.5 -4.0547,1.5 -2.2031,0 -3.6328,-1.2187 -1.4297,-1.2188 -2.2734,-3.375 h -0.1641 l -0.3516,4.125 h -1.8281 v -36.4688 z m 5.7656,12.5391 q -2.0859,0 -3.3515,1.289 -1.2656,1.2891 -1.8516,3.5625 -0.5625,2.2735 -0.5625,5.2969 v 1.9922 q 0,5.2969 1.5235,7.7578 1.5234,2.4609 4.125,2.4609 2.6718,0 4.0781,-2.7656 1.4297,-2.7656 1.4297,-8.6015 0,-5.4141 -1.2891,-8.2032 -1.2656,-2.789 -4.1016,-2.789 z m 19.8047,-2.0391 q 3.2578,0 4.6875,2.0859 1.4297,2.086 1.4297,6.6329 v 17.25 h -1.7344 l -0.2578,-4.1016 h -0.094 q -0.4219,1.2422 -1.125,2.2969 -0.7031,1.0312 -1.8047,1.664 -1.1016,0.6094 -2.7656,0.6094 -2.0157,0 -3.2813,-0.9844 -1.2422,-1.0078 -1.8515,-2.6015 -0.586,-1.6172 -0.586,-3.4453 0,-3.7969 2.1563,-5.7891 2.1797,-2.0156 6.164,-2.3438 l 2.9532,-0.2812 v -2.1563 q 0,-3.7968 -0.961,-5.3203 -0.9609,-1.5468 -3.164,-1.5468 -0.961,0 -2.1329,0.3281 -1.1484,0.3281 -2.5078,1.1484 l -0.7968,-1.7578 q 1.289,-0.8203 2.7421,-1.2422 1.4766,-0.4453 2.9297,-0.4453 z m 3.9375,12.7734 -2.7656,0.2344 q -3.2109,0.3047 -4.7578,1.875 -1.5234,1.5469 -1.5234,4.4766 0,2.5781 1.0546,3.914 1.0547,1.336 2.9063,1.336 2.6484,0 3.8672,-2.4844 1.2187,-2.4844 1.2187,-6.5859 z m 16.9688,13.6641 q -2.7422,0 -4.5703,-1.5234 -1.8047,-1.5235 -2.6953,-4.4063 -0.8907,-2.9062 -0.8907,-6.9844 0,-4.3593 0.9844,-7.3593 0.9844,-3.0235 2.8594,-4.5938 1.8984,-1.5703 4.6172,-1.5703 1.1953,0 2.1797,0.2578 0.9843,0.2578 1.8515,0.75 l -0.75,1.8985 q -0.75,-0.4454 -1.5469,-0.6329 -0.7734,-0.2109 -1.5937,-0.2109 -1.9922,0 -3.3984,1.2656 -1.4063,1.2657 -2.1797,3.8203 -0.75,2.5313 -0.75,6.3282 0,3.375 0.6328,5.8359 0.6562,2.4375 2.0156,3.7734 1.3594,1.336 3.4922,1.336 0.9609,0 1.9453,-0.2344 1.0078,-0.2578 1.9688,-0.7266 v 2.0157 q -0.8672,0.4453 -2.0157,0.7031 -1.1484,0.2578 -2.1562,0.2578 z m 11.6953,-36.9375 v 18.75 q 0,1.5469 -0.047,2.9297 -0.023,1.3594 -0.094,2.8359 h 0.1172 q 0.4218,-0.7968 0.75,-1.3828 0.3515,-0.6094 0.7734,-1.289 l 6.6094,-10.8516 h 2.414 l -5.9531,9.6562 6.5156,15.8204 h -2.3672 l -5.6484,-13.8985 -3.0703,4.4063 v 9.4922 h -2.2734 v -36.4688 z"
         id="text4"
         aria-label="back" /><path
         id="path165"
         d="m 1598.2954,1034.131 c -12.4409,0.037 -15.159,0.3656 -16.2482,1.3471 -1.4887,1.3404 -1.6787,3.6288 -1.6787,20.2164 0,13.2459 0.3336,19.0484 1.1504,19.8789 0.8474,0.863 9.2738,1.1717 31.9453,1.1717 22.6714,0 31.0979,-0.3102 31.9452,-1.1717 0.8158,-0.8312 1.1457,-6.5938 1.1356,-19.7854 0,-10.2368 -0.3978,-19.2287 -0.8658,-19.9816 -0.6954,-1.1189 -6.4335,-1.4125 -31.4018,-1.6049 -6.6071,-0.052 -11.8353,-0.078 -15.982,-0.07 z"
         style="display:inline;fill:#ffffff;fill-opacity:1;stroke-width:0.264582"
         transform="translate(290.52771,-20.640943)" /><text
         xml:space="preserve"
         style="font-style:normal;font-variant:normal;font-weight:normal;font-stretch:normal;font-size:14.047px;line-height:0;font-family:'Open Sans';-inkscape-font-specification:'Open Sans, @wght=600,wdth=75.0';font-variant-ligatures:normal;font-variant-caps:normal;font-variant-numeric:normal;font-variant-east-asian:normal;font-variation-settings:'wdth' 75, 'wght' 600;display:inline;fill:#000000;fill-opacity:1;fill-rule:evenodd;stroke:#000000;stroke-width:7.59999;stroke-linecap:square;stroke-miterlimit:5.4;paint-order:stroke markers fill"
         x="1465.8579"
         y="1147.6244"
         id="text39"
         transform="matrix(1.0823535,0,0,0.92391257,290.52771,-20.640943)"><tspan
           sodipodi:role="line"
           id="tspan38"
           style="font-style:normal;font-variant:normal;font-weight:normal;font-stretch:normal;font-size:14.047px;font-family:'Open Sans';-inkscape-font-specification:'Open Sans, @wght=600,wdth=75.0';font-variant-ligatures:normal;font-variant-caps:normal;font-variant-numeric:normal;font-variant-east-asian:normal;font-variation-settings:'wdth' 75, 'wght' 600;fill:#000000;fill-opacity:1;stroke:none;stroke-width:7.59999"
           x="1465.8579"
           y="1147.6244">Tab</tspan></text><path
         d="m 1635.9671,1055.44 c -0.2028,0.054 -0.2603,0.4705 -0.2603,1.2759 0,1.5553 -1.1365,1.9597 -6.037,2.1476 l -6.037,0.2322 6.037,0.4151 c 4.7683,0.3259 6.037,0.8036 6.037,2.2745 0,1.5616 0.2265,1.6138 1.4099,0.317 1.1683,-1.2803 1.5486,-1.2553 2.222,0.1517 0.5655,1.1808 0.8123,0.259 0.8123,-3.0289 0,-3.2896 -0.2468,-4.2096 -0.8123,-3.0289 -0.6734,1.4053 -1.0537,1.4303 -2.222,0.1518 -0.5925,-0.6495 -0.9451,-0.9584 -1.1496,-0.9044 z"
         id="path205"
         style="display:inline;stroke-width:0.264583"
         transform="translate(290.52771,-20.640943)" /><path
         d="m 1619.5248,1045.312 c -0.4628,0 -1.1169,0.5888 -1.4536,1.308 -0.4263,0.9111 -0.8437,0.8218 -1.3799,-0.2947 -0.4969,-1.0356 -0.7376,0.067 -0.6794,3.1213 0.051,2.5986 0.2805,3.7535 0.5118,2.5678 0.4005,-2.0477 0.5087,-2.0517 2.133,-0.1116 1.5641,1.8691 1.7101,1.8754 1.7101,0.089 0,-1.5861 1.054,-1.9977 5.5898,-2.1825 l 5.5901,-0.2277 -5.5901,-0.4196 c -4.145,-0.3125 -5.5898,-0.862 -5.5898,-2.1343 0,-0.9433 -0.3793,-1.716 -0.842,-1.716 z"
         id="path202"
         style="display:inline;stroke-width:0.264583"
         transform="translate(290.52771,-20.640943)" /><text
         xml:space="preserve"
         style="font-style:normal;font-variant:normal;font-weight:normal;font-stretch:normal;font-size:50.7999px;line-height:0;font-family:'Open Sans';-inkscape-font-specification:'Open Sans, @wght=300,wdth=75.0';font-variant-ligatures:normal;font-variant-caps:normal;font-variant-numeric:normal;font-variant-east-asian:normal;font-variation-settings:'wdth' 75, 'wght' 300;display:inline;fill:#000000;fill-opacity:1;fill-rule:evenodd;stroke:none;stroke-width:7.59998;stroke-linecap:square;stroke-miterlimit:5.4;paint-order:stroke markers fill"
         x="1464.2726"
         y="1067.3413"
         id="text41"
         transform="translate(290.52771,-20.640943)"><tspan
           id="tspan39"
           style="font-style:normal;font-variant:normal;font-weight:normal;font-stretch:normal;font-size:50.7999px;font-family:'Open Sans';-inkscape-font-specification:'Open Sans, @wght=300,wdth=75.0';font-variant-ligatures:normal;font-variant-caps:normal;font-variant-numeric:normal;font-variant-east-asian:normal;font-variation-settings:'wdth' 75, 'wght' 300;fill:#ffffff;fill-opacity:1;stroke-width:7.59998"
           x="1464.2726"
           y="1067.3413"
           sodipodi:role="line">scores</tspan></text></g></g></svg>
